<?xml version="1.0" encoding="utf-8"?>
<!-- Generator: Adobe Illustrator 24.1.2, SVG Export Plug-In . SVG Version: 6.00 Build 0)  -->
<svg version="1.1" id="Layer_1" xmlns="http://www.w3.org/2000/svg" xmlns:xlink="http://www.w3.org/1999/xlink" x="0px" y="0px"
	 viewBox="0 0 615.9 269.6" style="enable-background:new 0 0 615.9 269.6;" xml:space="preserve">
<style type="text/css">
	.st0{clip-path:url(#SVGID_2_);}
</style>
<g>
	<defs>
		<rect id="SVGID_1_" y="0" width="615.9" height="271.2"/>
	</defs>
	<clipPath id="SVGID_2_">
		<use xlink:href="#SVGID_1_"  style="overflow:visible;"/>
	</clipPath>
	<g class="st0">
		<path d="M405.6,174.2l-2.1,1.4l0.5-0.4l0.5-0.4l0.5-0.3C405.3,174.4,405.4,174.3,405.6,174.2z"/>
		<path d="M330.5,93.6c-0.6-0.6-1.1-1.2-1.6-1.9l0.1-0.1L330.5,93.6z"/>
		<path d="M296,123.3c-0.4-0.7-0.9-1.4-1.4-2s-1.1-1.3-1.6-1.9c-9.9-10.6-26.5-11.2-37.1-1.3c-3,2.8-5.3,6.2-6.7,10.1
			c-5,13.6,1.9,28.7,15.5,33.7c13.6,5,28.7-1.9,33.7-15.5C301.2,138.7,300.3,130.2,296,123.3z M293.7,144.6
			c-4.1,11-16.3,16.6-27.3,12.5c-11-4.1-16.6-16.3-12.5-27.3c4.1-11,16.3-16.6,27.3-12.5c1.1,0.4,2.1,0.9,3.1,1.4l0.6,0.3
			c0.5,0.3,1,0.6,1.5,1l0.8,0.6l0.4,0.3l0.7,0.6c0.1,0.1,0.3,0.3,0.4,0.4s0.5,0.5,0.8,0.8s0.5,0.6,0.8,0.9l0.1,0.1l0.4,0.5
			c0.1,0.1,0.2,0.3,0.3,0.4c0.6,0.8,1.1,1.7,1.6,2.6c0.1,0.2,0.3,0.5,0.4,0.7c0.1,0.2,0.2,0.5,0.3,0.7c0.1,0.2,0.2,0.4,0.3,0.7
			c0,0,0,0.1,0,0.1c0.1,0.2,0.2,0.5,0.3,0.7s0.2,0.6,0.3,0.9s0.1,0.4,0.2,0.6c0.1,0.3,0.1,0.5,0.2,0.8c0.1,0.5,0.2,0.9,0.3,1.4
			c0,0.2,0,0.3,0.1,0.5c0,0.1,0.1,0.3,0.1,0.4C295.2,138.1,294.8,141.5,293.7,144.6L293.7,144.6z"/>
		<path d="M425.5,167.9c-6.5-2.4-13.8-2.2-20.1,0.8h-0.1l-40.2-68.6l-1.4-2.4l0,0c10.5-10,10.9-26.6,0.9-37.1s-26.6-10.9-37.1-0.9
			c-9.7,9.3-10.9,24.4-2.7,35l-32,24.6c0.6,0.6,1.1,1.2,1.6,1.9s1,1.3,1.4,2l32.3-24.9c4.8,4.3,11,6.6,17.4,6.7
			c5,0,9.9-1.4,14.2-4.2l41.1,70.2l0.1,0.1c-11.8,8.5-14.4,24.9-5.9,36.6c4.9,6.8,12.8,10.9,21.3,10.9c14.5,0,26.3-11.7,26.3-26.2
			C442.6,181.5,435.8,171.7,425.5,167.9L425.5,167.9z M338.3,98.7c-3-1.1-5.6-2.8-7.8-5.1l0,0c-0.6-0.6-1.1-1.2-1.6-1.9
			c-7.1-9.3-5.3-22.6,4-29.8s22.6-5.3,29.8,4c7.1,9.3,5.3,22.6-4,29.8C352.8,100.1,345.1,101.3,338.3,98.7L338.3,98.7z M436.3,199.9
			c-4.1,11-16.3,16.6-27.3,12.6c-11-4.1-16.6-16.3-12.6-27.3l0,0l0,0c0.1-0.4,0.3-0.7,0.4-1s0.3-0.6,0.4-0.9s0.3-0.6,0.4-0.8
			l0.1-0.1c0,0,0-0.1,0-0.1c0.1-0.2,0.3-0.5,0.4-0.7c0.3-0.6,0.7-1.1,1.1-1.6c0.2-0.2,0.3-0.4,0.5-0.6c0.1-0.2,0.3-0.4,0.5-0.6
			c0.3-0.4,0.6-0.8,1-1.1c0.2-0.2,0.3-0.3,0.5-0.5h0.1c0.2-0.2,0.3-0.3,0.5-0.5s0.4-0.3,0.6-0.5c0.2-0.2,0.4-0.3,0.6-0.5
			c0.2-0.1,0.3-0.3,0.5-0.4l0.5-0.4l0.5-0.3c0.2-0.1,0.4-0.2,0.5-0.3l0,0l0.1-0.1c0.6-0.3,1.1-0.6,1.7-0.9
			c10.7-4.9,23.3-0.2,28.2,10.5C438,188.8,438.2,194.7,436.3,199.9L436.3,199.9z"/>
		<path d="M52.5,189.3h11c2.8,0,4.9,0.7,6.3,2.2c1.4,1.5,2.2,3.6,2.1,5.7c0,1.2-0.3,2.4-0.8,3.4c-0.3,0.6-0.8,1.1-1.3,1.5
			c-0.6,0.5-1.3,1-2.1,1.3v0.1c1.4,0.3,2.7,1.2,3.5,2.5c0.7,1.3,1.1,2.7,1.1,4.2c0.1,2.2-0.7,4.4-2.3,6c-1.4,1.5-3.5,2.4-5.6,2.3
			h-12V189.3z M56.8,193.2v8.4H63c1.3,0.1,2.5-0.4,3.4-1.3c0.8-0.8,1.2-1.8,1.1-2.9c0-1.1-0.4-2.2-1.1-3c-0.9-0.8-2.2-1.3-3.4-1.2
			H56.8z M56.8,205.5v8.8h6.6c1.3,0.1,2.6-0.4,3.5-1.3c1.5-1.8,1.5-4.4,0-6.1c-0.9-0.9-2.2-1.4-3.5-1.3L56.8,205.5z"/>
		<path d="M77,189.3h4.3v18.8c-0.1,1.7,0.5,3.3,1.7,4.6c1.1,1.1,2.6,1.7,4.1,1.6c1.5,0.1,3-0.5,4.1-1.6c1.1-1.2,1.7-2.9,1.6-4.6
			v-18.8h4.3v19.3c0,5.6-4.5,10.1-10.1,10.1c-2.6,0-5.1-1-7-2.8c-2-1.9-3.1-4.5-3-7.3L77,189.3z"/>
		<path d="M103.3,189.3h4.3v29.2h-4.3V189.3z"/>
		<path d="M113.9,189.3h4.3v25H132v4.2h-18.1V189.3z"/>
		<path d="M136.7,189.3h9.9c3.6-0.1,6.9,1.8,8.6,4.9c0.7,1,1.1,2.2,1.3,3.4c0.2,2.1,0.3,4.1,0.2,6.2c0.1,2.2-0.1,4.4-0.3,6.6
			c-0.1,0.6-0.2,1.1-0.5,1.7c-0.2,0.5-0.5,1-0.8,1.5c-0.9,1.4-2,2.6-3.5,3.4c-1.6,1-3.5,1.5-5.4,1.4h-9.6V189.3z M141,214.3h5.1
			c2.1,0.2,4.1-0.8,5.2-2.5c0.5-0.7,0.8-1.5,0.9-2.4c0.1-1.8,0.2-3.6,0.2-5.3c0-2.5-0.1-4.4-0.2-5.5c-0.1-1-0.5-1.9-1.1-2.7
			c-1.1-1.7-3-2.6-5-2.5H141L141,214.3z"/>
		<path d="M172.4,189.3h4l12.8,20.8h0.1v-20.8h4.3v29.2h-4.1l-12.8-20.8h-0.1v20.8h-4.3L172.4,189.3z"/>
		<path d="M200.4,189.3h18.1v4.2h-13.8v8.4h11.8v3.9h-11.8v8.6h13.8v4.2h-18.1V189.3z"/>
		<path d="M228,193.2h-7.8v-3.9H240v3.9h-7.7v25.3H228V193.2z"/>
		<path d="M241.2,189.3h4.5l4.4,20.8h0.1l5.5-20.8h3.1l5.5,20.8h0.1l4.5-20.8h4.5l-7.1,29.2h-3.6l-5.4-21.1h-0.1l-5.4,21.1h-3.6
			L241.2,189.3z"/>
		<path d="M276.9,203.9c-0.1-2.3,0-4.6,0.3-6.8c0.1-1,0.5-1.9,1-2.8c0.8-1.5,1.9-2.7,3.3-3.6c3.4-2.2,7.8-2.2,11.2,0
			c1.4,0.9,2.5,2.1,3.2,3.6c0.5,0.8,0.9,1.8,1,2.8c0.2,2.3,0.3,4.5,0.2,6.8c0,2.3,0,4.5-0.2,6.8c-0.1,1-0.5,2-1,2.8
			c-0.7,1.4-1.9,2.7-3.2,3.6c-1.7,1.1-3.6,1.7-5.6,1.7c-2,0-3.9-0.6-5.6-1.7c-1.4-0.9-2.5-2.1-3.3-3.6c-0.2-0.4-0.4-0.9-0.6-1.3
			c-0.2-0.5-0.3-1-0.4-1.6C276.9,208.4,276.8,206.2,276.9,203.9z M281.1,203.9c-0.1,2,0,3.9,0.3,5.8c0.5,2.6,2.8,4.6,5.5,4.6
			c0.9,0,1.9-0.2,2.7-0.7c0.7-0.3,1.3-0.8,1.7-1.5c0.6-0.7,1-1.6,1.1-2.5c0.2-1.9,0.3-3.9,0.3-5.8c0.1-2,0-3.9-0.3-5.9
			c-0.2-0.9-0.6-1.7-1.1-2.4c-0.4-0.6-1-1.1-1.7-1.5c-0.8-0.4-1.7-0.6-2.7-0.6c-0.9,0-1.8,0.2-2.6,0.6c-0.7,0.4-1.3,0.9-1.8,1.5
			c-0.6,0.7-1,1.5-1.1,2.4C281.2,200,281.1,201.9,281.1,203.9z"/>
		<path d="M302.8,189.3h11c2.1-0.1,4.1,0.6,5.8,1.9c1.8,1.5,2.9,3.8,2.8,6.2c0.2,3.6-2,6.9-5.5,8.1l6.5,13h-5.1l-5.9-12.5h-5.5v12.5
			h-4.3V189.3z M307.1,202.1h6.5c2.5,0.2,4.6-1.7,4.8-4.2c0-0.2,0-0.3,0-0.5c0.1-1.3-0.4-2.5-1.4-3.3c-0.9-0.7-2-1-3.1-0.9h-6.7
			L307.1,202.1z"/>
		<path d="M327.8,189.3h4.3v15h0.1l11.6-15h5.1l-9.1,11.5l10,17.7h-5.1l-7.7-14.3l-5,5.4v8.9h-4.3L327.8,189.3z"/>
		<path d="M354,211.4c2.2,1.9,5.1,2.9,8,2.9c3.7-0.1,5.5-1.4,5.6-4.1c0-2.2-1.2-3.5-3.7-3.9l-3.7-0.5c-2.1-0.3-4.1-1.2-5.5-2.8
			c-1.3-1.5-2-3.4-2-5.4c-0.1-2.3,0.8-4.6,2.5-6.2c1.9-1.6,4.3-2.5,6.8-2.4c3.3,0,6.5,1.1,9.2,3l-2.4,3.6c-2.1-1.4-4.5-2.2-7-2.2
			c-1.2,0-2.3,0.3-3.3,1c-0.9,0.8-1.5,1.9-1.4,3.2c0,0.9,0.3,1.7,1,2.3c0.8,0.8,1.9,1.3,3,1.4c0.8,0.1,1.8,0.3,3.2,0.5
			c2.3,0.2,4.4,1.2,5.9,2.9c1.3,1.5,1.9,3.5,1.9,5.4c-0.2,5.6-3.5,8.4-9.9,8.5c-4,0.1-7.8-1.4-10.8-4L354,211.4z"/>
		<path d="M455.8,189.3h4l12.8,20.8h0.1v-20.8h4.3v29.2h-4l-12.8-20.8h-0.1v20.8h-4.3L455.8,189.3z"/>
		<path d="M483.9,189.3h4.3v25h13.8v4.2h-18.1V189.3z"/>
		<path d="M506.7,189.3h4.3v29.2h-4.3L506.7,189.3z"/>
		<path d="M517.2,189.3h4l12.8,20.8h0.1v-20.8h4.3v29.2h-4.1l-12.7-20.8h-0.1v20.8h-4.3L517.2,189.3z"/>
		<path d="M545.3,189.3h18.1v4.2h-13.8v8.4h11.8v3.9h-11.8v8.6h13.8v4.2h-18.1V189.3z"/>
	</g>
</g>
</svg>
