<svg id="Layer_1" data-name="Layer 1" xmlns="http://www.w3.org/2000/svg" xmlns:xlink="http://www.w3.org/1999/xlink" viewBox="0 0 615.86 269.6"><defs><style>.cls-1{fill:url(#linear-gradient);}.cls-2{fill:#1174b9;}.cls-3{fill:none;}</style><linearGradient id="linear-gradient" x1="247.47" y1="135.62" x2="442.63" y2="135.62" gradientUnits="userSpaceOnUse"><stop offset="0" stop-color="#3dbad3"/><stop offset="1" stop-color="#0f73b8"/></linearGradient></defs><path d="M405.62,174.15l-2.07,1.4.5-.37.52-.36.52-.34C405.26,174.36,405.44,174.26,405.62,174.15Z"/><path d="M330.45,93.59a19.36,19.36,0,0,1-1.63-1.89l.1-.09Z"/><path class="cls-1" d="M425.49,167.88a26.06,26.06,0,0,0-20.08.76l-.09,0-40.16-68.55-1.4-2.38h0a26.24,26.24,0,1,0-38.9-3l-32,24.58a26.23,26.23,0,0,0-43.79,8.79A26.25,26.25,0,1,0,296,123.28l32.33-24.86A26.22,26.22,0,0,0,345.63,105a26.35,26.35,0,0,0,14.17-4.15l41.14,70.24.07.11a26.25,26.25,0,0,0,15.33,47.54,26.25,26.25,0,0,0,9.15-50.86ZM293.65,144.61a21.24,21.24,0,1,1-12.54-27.31,21,21,0,0,1,3.07,1.43l.56.32a17,17,0,0,1,1.5,1l.81.62.42.35.66.59c.15.13.28.26.42.4s.52.53.77.8.54.59.79.9l.06.08.38.49c.11.14.23.27.32.41a19.1,19.1,0,0,1,1.6,2.58,6.76,6.76,0,0,1,.36.71,7.67,7.67,0,0,1,.33.72,5.79,5.79,0,0,1,.29.68.18.18,0,0,1,0,.09c.09.23.17.47.27.7s.19.59.27.88.13.43.19.65a7.2,7.2,0,0,1,.19.77,13.52,13.52,0,0,1,.28,1.41c0,.17.05.34.07.51a1.74,1.74,0,0,1,.06.45A21.29,21.29,0,0,1,293.65,144.61Zm44.63-45.93a20.91,20.91,0,0,1-7.81-5.08h0a19.36,19.36,0,0,1-1.63-1.89,21.23,21.23,0,1,1,9.46,7Zm98,101.19a21.25,21.25,0,0,1-39.86-14.76h0c.13-.35.27-.69.41-1s.27-.61.42-.91.29-.57.44-.84l.06-.12a.47.47,0,0,0,.05-.1c.14-.23.28-.46.41-.69a17.79,17.79,0,0,1,1.09-1.63c.16-.2.3-.4.47-.59a6.41,6.41,0,0,1,.48-.58c.33-.38.65-.75,1-1.1a4.72,4.72,0,0,1,.5-.5l.06,0c.17-.18.33-.33.51-.49s.39-.31.58-.47a6.51,6.51,0,0,1,.6-.47,5.35,5.35,0,0,1,.5-.37l.52-.36.52-.34c.17-.12.35-.22.53-.33h0l.15-.09c.56-.32,1.13-.61,1.73-.88a21.25,21.25,0,0,1,28.79,26.69Z"/><path class="cls-2" d="M52.51,189.31h11q4.16,0,6.26,2.16a7.71,7.71,0,0,1,2.11,5.66,6.9,6.9,0,0,1-.83,3.45,5.59,5.59,0,0,1-1.28,1.48,9.28,9.28,0,0,1-2.06,1.34v.08a5.69,5.69,0,0,1,3.5,2.5,8.41,8.41,0,0,1,1.11,4.23,8.07,8.07,0,0,1-2.29,6,7.42,7.42,0,0,1-5.57,2.31H52.51Zm4.28,3.92v8.39H63a4.32,4.32,0,0,0,3.45-1.27,4.06,4.06,0,0,0,1.13-2.94,4.25,4.25,0,0,0-1.13-3A4.71,4.71,0,0,0,63,193.23Zm0,12.31v8.79H63.4A4.43,4.43,0,0,0,66.9,213a4.83,4.83,0,0,0,0-6.14,4.53,4.53,0,0,0-3.5-1.31Z"/><path class="cls-2" d="M77,189.31h4.28v18.83a6.13,6.13,0,0,0,1.67,4.55,5.44,5.44,0,0,0,4.1,1.64,5.54,5.54,0,0,0,4.13-1.64,6.2,6.2,0,0,0,1.64-4.55V189.31h4.28v19.3a10.13,10.13,0,0,1-17.15,7.31,9.62,9.62,0,0,1-3-7.3Z"/><path class="cls-2" d="M103.34,189.31h4.28V218.5h-4.28Z"/><path class="cls-2" d="M113.91,189.31h4.28v25H132v4.17H113.91Z"/><path class="cls-2" d="M136.71,189.31h9.89a9.43,9.43,0,0,1,8.61,4.92,8.87,8.87,0,0,1,1.3,3.45,58.33,58.33,0,0,1,.22,6.22,43.73,43.73,0,0,1-.33,6.57,7.58,7.58,0,0,1-.47,1.68,15.7,15.7,0,0,1-.79,1.5,9.89,9.89,0,0,1-3.46,3.4,9.49,9.49,0,0,1-5.37,1.45h-9.6Zm4.28,25h5.13a5.78,5.78,0,0,0,5.24-2.54,5,5,0,0,0,.91-2.39,52.14,52.14,0,0,0,.17-5.34c0-2.54-.05-4.36-.17-5.46a5.08,5.08,0,0,0-1.11-2.66,5.62,5.62,0,0,0-5-2.47H141Z"/><path class="cls-2" d="M172.36,189.31h4l12.8,20.75h.08V189.31h4.28V218.5h-4.05l-12.79-20.75h-.07V218.5h-4.29Z"/><path class="cls-2" d="M200.41,189.31h18.06v4.16H204.69v8.35h11.77v3.92H204.69v8.59h13.78v4.17H200.41Z"/><path class="cls-2" d="M228,193.23h-7.75v-3.92h19.78v3.92H232.3V218.5H228Z"/><path class="cls-2" d="M241.17,189.31h4.52l4.44,20.75h.08l5.48-20.75h3.11l5.46,20.75h.08l4.46-20.75h4.52l-7.06,29.19h-3.59l-5.39-21.06h-.07L251.8,218.5h-3.57Z"/><path class="cls-2" d="M276.87,203.9a49.46,49.46,0,0,1,.29-6.82,8.06,8.06,0,0,1,.95-2.79,9.91,9.91,0,0,1,3.29-3.59,10.37,10.37,0,0,1,11.18,0,9.63,9.63,0,0,1,3.22,3.6,6.84,6.84,0,0,1,1,2.78,57.76,57.76,0,0,1,.25,6.81,57.87,57.87,0,0,1-.25,6.77,6.87,6.87,0,0,1-1,2.82,9.31,9.31,0,0,1-3.22,3.56,9.87,9.87,0,0,1-5.62,1.69,9.75,9.75,0,0,1-5.56-1.69,9.53,9.53,0,0,1-3.29-3.56c-.21-.44-.4-.86-.56-1.26a7.68,7.68,0,0,1-.39-1.56A49.47,49.47,0,0,1,276.87,203.9Zm4.28,0a35,35,0,0,0,.31,5.84,5.63,5.63,0,0,0,5.49,4.59,5.21,5.21,0,0,0,2.67-.66,4.79,4.79,0,0,0,1.71-1.46,5.3,5.3,0,0,0,1.14-2.47,38.2,38.2,0,0,0,.29-5.84,39.21,39.21,0,0,0-.29-5.88,5.2,5.2,0,0,0-1.14-2.42,5.12,5.12,0,0,0-1.71-1.51,6.15,6.15,0,0,0-2.67-.62,5.8,5.8,0,0,0-2.6.62,5.28,5.28,0,0,0-1.78,1.51,4.81,4.81,0,0,0-1.11,2.42A35.89,35.89,0,0,0,281.15,203.9Z"/><path class="cls-2" d="M302.83,189.31h11.05a8.51,8.51,0,0,1,5.76,1.92,7.88,7.88,0,0,1,2.81,6.22,8.11,8.11,0,0,1-5.46,8.09l6.54,13h-5.08L312.59,206h-5.48V218.5h-4.28Zm4.28,12.79h6.49a4.5,4.5,0,0,0,4.81-4.66,4,4,0,0,0-1.42-3.31,4.85,4.85,0,0,0-3.15-.9h-6.73Z"/><path class="cls-2" d="M327.83,189.31h4.29v15h.08l11.64-15h5.08l-9.06,11.51,10,17.68h-5.08l-7.71-14.28-5,5.39v8.89h-4.29Z"/><path class="cls-2" d="M354,211.42a12.11,12.11,0,0,0,8,2.91c3.67-.05,5.53-1.41,5.59-4.06q0-3.27-3.69-3.93l-3.74-.54a9.15,9.15,0,0,1-5.55-2.79,7.86,7.86,0,0,1-2-5.41,8.13,8.13,0,0,1,2.46-6.17,9.38,9.38,0,0,1,6.76-2.36,15.56,15.56,0,0,1,9.17,3l-2.39,3.64a12.61,12.61,0,0,0-7-2.25,5.24,5.24,0,0,0-3.3,1,3.86,3.86,0,0,0-1.42,3.17,3.28,3.28,0,0,0,.95,2.28,5.32,5.32,0,0,0,3.05,1.44c.77.14,1.83.29,3.18.46a8.71,8.71,0,0,1,5.87,2.95,8.42,8.42,0,0,1,1.89,5.45q-.23,8.37-9.93,8.5a15.75,15.75,0,0,1-10.79-4Z"/><path class="cls-2" d="M455.82,189.31h4l12.8,20.75h.08V189.31H477V218.5H473l-12.78-20.75h-.08V218.5h-4.28Z"/><path class="cls-2" d="M483.87,189.31h4.28v25h13.78v4.17H483.87Z"/><path class="cls-2" d="M506.67,189.31H511V218.5h-4.28Z"/><path class="cls-2" d="M517.24,189.31h4l12.8,20.75h.08V189.31h4.28V218.5h-4.06L521.6,197.75h-.08V218.5h-4.28Z"/><path class="cls-2" d="M545.29,189.31h18.06v4.16H549.57v8.35h11.76v3.92H549.57v8.59h13.78v4.17H545.29Z"/><rect class="cls-3" width="615.86" height="271.23"/></svg>