<svg width="187" height="150" xmlns="http://www.w3.org/2000/svg" xmlns:xlink="http://www.w3.org/1999/xlink" viewBox="0 0 301.14 242.04"><defs><style>.cls-1{isolation:isolate;}.cls-2{fill:url(#linear-gradient);}.cls-3{fill:#a4dce7;}.cls-4{opacity:0.23;mix-blend-mode:multiply;}.cls-5{fill:#fff;}.cls-6{fill:url(#radial-gradient);}.cls-7,.cls-8{fill:none;stroke-miterlimit:10;}.cls-7{stroke:url(#linear-gradient-2);}.cls-8{stroke:#505153;stroke-width:2px;}</style><linearGradient id="linear-gradient" x1="142.87" y1="-38.28" x2="153.36" y2="257.41" gradientUnits="userSpaceOnUse"><stop offset="0" stop-color="#737577"/><stop offset="0" stop-color="#6f7173"/><stop offset="0" stop-color="#656668"/><stop offset="0" stop-color="#525455"/><stop offset="0" stop-color="#4a4b4c"/><stop offset="0" stop-color="#4e4f50"/><stop offset="0" stop-color="#595b5c"/><stop offset="0" stop-color="#6d6e70"/><stop offset="0" stop-color="#888a8b"/><stop offset="0" stop-color="#abadaf"/><stop offset="0" stop-color="#babcbe"/><stop offset="0.21" stop-color="#b6b8ba"/><stop offset="0.45" stop-color="#a9aaad"/><stop offset="0.69" stop-color="#939597"/><stop offset="0.94" stop-color="#757679"/><stop offset="1" stop-color="#6d6e71"/></linearGradient><radialGradient id="radial-gradient" cx="319.92" cy="276.67" r="94.25" gradientUnits="userSpaceOnUse"><stop offset="0" stop-color="#a7a9ac"/><stop offset="0" stop-color="#4a4b4c"/><stop offset="1" stop-color="#5a5b5d"/></radialGradient><linearGradient id="linear-gradient-2" x1="293.4" y1="150.33" x2="294.96" y2="150.33" xlink:href="#linear-gradient"/></defs><title>Refined</title><g class="cls-1"><g id="Layer_45" data-name="Layer 45"><path class="cls-2" d="M294.46,152.85a11.12,11.12,0,0,0-.6-4.86v0c-.28-.95-.57-1.89-.76-2.85a21.7,21.7,0,0,0-2-5.85c-1.47-2.76-2.45-5.77-4.48-8.26a16.73,16.73,0,0,1-1.09-1.52,44.27,44.27,0,0,0-2.44-3.73,37.4,37.4,0,0,0-4-4.42c-1.45-1.32-2.9-2.71-4.41-4-.35-.3-.85-.44-1.22-.73a75.24,75.24,0,0,0-7-4.58,39.57,39.57,0,0,0-6.93-3.25,34.74,34.74,0,0,0-10.88-2.62c-1.07,0-2.11-.76-3.33-1.23.47-1.75-.21-3.22-.39-4.76-.12-1-.71-1.86-.64-2.79a7.43,7.43,0,0,0-.66-3.12c-1-2.83-1.77-5.77-3-8.54a80.78,80.78,0,0,0-8.27-14.93,80.66,80.66,0,0,0-5.85-7.07,67.21,67.21,0,0,0-10-8.93,90.13,90.13,0,0,0-9.71-6.14c-2.17-1.18-4.5-2-6.67-3.1-2.93-1.51-6.09-2.1-9.18-3-2.22-.63-4.43-1.53-6.83-1.25-1.2-1.14-2.69-.41-4-.62a22.48,22.48,0,0,0-4-.57c-3.28.13-6.57-.44-9.87.49-1.74.49-3.68.19-5.56.62-2.79.64-5.63,1.13-8.41,1.89a69.35,69.35,0,0,0-11.37,4.33c-1.88.89-3.63,2.05-5.48,3a67.56,67.56,0,0,0-12.67,9.29,60.66,60.66,0,0,0-9.47,10.78,70.85,70.85,0,0,0-4.91,7.74,111.61,111.61,0,0,0-5.59,12.51c-2.25-.81-4.33-2-6.51-2.25-2.45-.26-4.86-1.09-7.39-.74-2.35.32-4.79.16-7.06.74a26.34,26.34,0,0,0-6.67,2.34,60.72,60.72,0,0,0-5.9,3.46,41.13,41.13,0,0,0-5.58,5,48.72,48.72,0,0,0-4,5.63c-1.43,2-2.08,4.29-3.05,6.42s-1,4.49-1.45,7a9.46,9.46,0,0,1-1.35.11,40.17,40.17,0,0,0-10.52,1.19,54.14,54.14,0,0,0-11,3.68,46.45,46.45,0,0,0-10.75,7.22,39.6,39.6,0,0,0-6.61,7c-2.37,3.37-5.14,7.54-6.64,11.65-.29.79-.55,1.58-.81,2.38-.42,1.27-.81,2.55-1.22,3.82-.72,2.22-.67,4.58-1.13,6.86a29.39,29.39,0,0,0-.07,7c0,.91.11,1.83.19,2.74l0,.5c.11,1.18.24,2.36.35,3.54,0,.18.2.33.24.51.63,2.48,1.35,4.94,2.2,7.36a49.44,49.44,0,0,0,6.45,11.72c2,2.92,4.69,5.24,7.18,7.71a32.84,32.84,0,0,0,4.15,3.25,39.28,39.28,0,0,0,9.78,5.2c2.86,1,5.71,2.28,8.67,2.64a55.56,55.56,0,0,0,8.3.8c7-.19,14.08-.06,21.12-.07l19.12.05H93l9.3,0s0-.09.12-.13H113c23.46,0,62.58.15,92.59.09h0c22.85-.06,40.4-.22,41.73-.64,2.7.3,5.25-.67,7.68-1.44a56,56,0,0,0,12.52-5.25,71.84,71.84,0,0,0,9.4-6.8,55.92,55.92,0,0,0,9.53-11.33,27,27,0,0,0,3.59-6.16,94.62,94.62,0,0,0,3.42-10.54c.63-2.93,1.51-5.84,1.51-8.82C295,160.44,295.64,156.59,294.46,152.85Zm-71.81,56.37c4.61-.28,8.16-.56,10.3-.82C230.82,208.68,227.26,209,222.65,209.22Z"/><circle class="cls-3" cx="159.35" cy="188.74" r="53.3"/><g id="wP5hc7" class="cls-4"><path d="M153,135.44h12.79a4.93,4.93,0,0,0,1.08.37,48.52,48.52,0,0,1,17.87,5.83,52.57,52.57,0,0,1,15.93,13.16,54,54,0,0,1,11.17,23.44c.27,1.37.57,2.74.86,4.1v12.8c-.3,1.44-.59,2.89-.89,4.33A53,53,0,0,1,198.62,225a53.6,53.6,0,0,1-29.92,16.45l-3,.58H153l-2.72-.52a53.69,53.69,0,0,1-32-18.67,52.33,52.33,0,0,1-11.41-24.08c-.23-1.22-.52-2.42-.78-3.63V181.87a3,3,0,0,0,.37-.84,49.25,49.25,0,0,1,4.86-15.74,53.8,53.8,0,0,1,37.58-29Zm43.3,20.66c-2.27,1.25-4.5,2.58-6.83,3.74s-4.69,2.1-7.27,3.25a78.26,78.26,0,0,1,5.06,23.24c3.14.48,19.8.35,21.4-.13C208.35,175.72,203.46,163.41,196.25,156.1Zm-74,.12c-6.59,6.15-13.54,23.47-12,30.16,3.21.46,19.55.3,21-.17.59-3.92,1-7.85,1.79-11.68s2.09-7.67,3.13-11.4Zm9.24,35c-2.34-.45-19.43-.43-21.36,0-.11,5.14,1.55,13.23,5.29,20.27,1.68,3.16,3.42,6.3,5.86,8.54l14.59-7.43A73.83,73.83,0,0,1,131.53,191.21ZM187.2,191c-.23,2.4-.33,4.6-.66,6.76A71.32,71.32,0,0,1,183.33,211a14.81,14.81,0,0,0-.41,1.62l14.57,7.42c7-8.34,10.49-18.06,11.22-29.07Zm-30.14-24.2c-5.82,0-11.16-1.25-16.6-2.49-2.79,7.25-4.63,14.39-4.53,22.25l5.4,0h5.21c1.81,0,3.63.06,5.44,0s3.43.37,5.08-.33Zm21.16-2.43c-2.88.58-5.55,1.2-8.25,1.64s-5.56.7-8.3,1c-.48,4.48-.28,17.83.27,19.39,4.11.45,19.09.26,20.86-.32A58.73,58.73,0,0,0,178.22,164.37Zm-38.41,47.27a82.63,82.63,0,0,1,17.12-3c.45-2.79.36-15.87-.16-17.8-6.82,0-13.71,0-20.82.05C135.76,198.24,137.53,204.86,139.81,211.64Zm38.93-.38c2.56-5.15,4.64-16.28,3.71-20.11-2.2-.4-18.8-.36-20.95.11,0,5.72,0,11.5,0,17.11Zm-41.09,5.44a49.65,49.65,0,0,0-13.4,6.81,49,49,0,0,0,28.25,14.14A63.3,63.3,0,0,1,137.65,216.7Zm56.85,6.77a51.54,51.54,0,0,0-13.18-6.65c-2.18,3.67-4.14,7.46-6.58,10.92s-5.32,6.57-8,9.86A49.32,49.32,0,0,0,194.5,223.47Zm-52.79-8.05c1.77,6,11.16,18.53,15.44,20.69.07-7.77.09-15.43,0-23.08A53.36,53.36,0,0,0,141.71,215.42Zm19.91,20.64c4.79-2.77,14.66-16.19,15.17-20.53-3.24-1.47-9.65-2.46-15.17-2.34Zm18.91-76.92A51.49,51.49,0,0,0,193.19,153c-.3-.4-.43-.6-.58-.77a8.59,8.59,0,0,0-.68-.67,50.69,50.69,0,0,0-22.34-11.18,2.52,2.52,0,0,0-2.44.35C172.75,146,176.84,152.31,180.53,159.14Zm-42.4-.13a11.64,11.64,0,0,0,.69-1.06,68.49,68.49,0,0,1,11.06-15.55,4.87,4.87,0,0,0,1.34-2.09c-7.49.14-21.1,6.88-25.54,12.67A43.27,43.27,0,0,0,138.13,159Zm18.78,3.77c.47-2.81.38-19.65-.13-21.55a63.43,63.43,0,0,0-14.53,19.11C147.12,161.94,152,162.35,156.91,162.78Zm19.49-2.44a62.78,62.78,0,0,0-14.91-19.44V152c0,1.81-.05,3.63,0,5.44s-.35,3.55.31,5.23C166.82,162.38,171.65,162,176.4,160.34Z"/><path class="cls-5" d="M196.25,156.1c7.21,7.31,12.1,19.62,12.36,30.1-1.6.48-18.26.61-21.4.13a78.26,78.26,0,0,0-5.06-23.24c2.58-1.15,5-2.11,7.27-3.25S194,157.35,196.25,156.1Z"/><path class="cls-5" d="M122.29,156.22l13.94,6.91c-1,3.73-2.3,7.52-3.13,11.4s-1.2,7.76-1.79,11.68c-1.49.47-17.83.63-21,.17C108.75,179.69,115.7,162.37,122.29,156.22Z"/><path class="cls-5" d="M131.53,191.21a73.83,73.83,0,0,0,4.38,21.36L121.32,220c-2.44-2.24-4.18-5.38-5.86-8.54-3.74-7-5.4-15.13-5.29-20.27C112.1,190.78,129.19,190.76,131.53,191.21Z"/><path class="cls-5" d="M187.2,191h21.51c-.73,11-4.24,20.73-11.22,29.07l-14.57-7.42a14.81,14.81,0,0,1,.41-1.62,71.32,71.32,0,0,0,3.21-13.27C186.87,195.6,187,193.4,187.2,191Z"/><path class="cls-5" d="M157.06,166.8v19.44c-1.65.7-3.39.26-5.08.33s-3.63,0-5.44,0h-5.21l-5.4,0c-.1-7.86,1.74-15,4.53-22.25C145.9,165.55,151.24,166.83,157.06,166.8Z"/><path class="cls-5" d="M178.22,164.37a58.73,58.73,0,0,1,4.58,21.74c-1.77.58-16.75.77-20.86.32-.55-1.56-.75-14.91-.27-19.39,2.74-.33,5.53-.59,8.3-1S175.34,165,178.22,164.37Z"/><path class="cls-5" d="M139.81,211.64c-2.28-6.78-4.05-13.4-3.86-20.71,7.11-.09,14,0,20.82-.05.52,1.93.61,15,.16,17.8A82.63,82.63,0,0,0,139.81,211.64Z"/><path class="cls-5" d="M178.74,211.26l-17.21-2.89c-.07-5.61,0-11.39,0-17.11,2.15-.47,18.75-.51,20.95-.11C183.38,195,181.3,206.11,178.74,211.26Z"/><path class="cls-5" d="M137.65,216.7a63.3,63.3,0,0,0,14.85,21,49,49,0,0,1-28.25-14.14A49.65,49.65,0,0,1,137.65,216.7Z"/><path class="cls-5" d="M194.5,223.47a49.32,49.32,0,0,1-27.79,14.13c2.71-3.29,5.61-6.4,8-9.86s4.4-7.25,6.58-10.92A51.54,51.54,0,0,1,194.5,223.47Z"/><path class="cls-5" d="M141.71,215.42A53.36,53.36,0,0,1,157.14,213c.1,7.65.08,15.31,0,23.08C152.87,234,143.48,221.39,141.71,215.42Z"/><path class="cls-5" d="M161.62,236.06V213.19c5.52-.12,11.93.87,15.17,2.34C176.28,219.87,166.41,233.29,161.62,236.06Z"/><path class="cls-5" d="M180.53,159.14c-3.69-6.83-7.78-13.13-13.38-18.44a2.52,2.52,0,0,1,2.44-.35,50.69,50.69,0,0,1,22.34,11.18,8.59,8.59,0,0,1,.68.67c.15.17.28.37.58.77A51.49,51.49,0,0,1,180.53,159.14Z"/><path class="cls-5" d="M138.13,159a43.27,43.27,0,0,1-12.45-6c4.44-5.79,18-12.53,25.54-12.67a4.87,4.87,0,0,1-1.34,2.09A68.49,68.49,0,0,0,138.82,158,11.64,11.64,0,0,1,138.13,159Z"/><path class="cls-5" d="M156.91,162.78c-5-.43-9.79-.84-14.66-2.44a63.43,63.43,0,0,1,14.53-19.11C157.29,143.13,157.38,160,156.91,162.78Z"/><path class="cls-5" d="M176.4,160.34c-4.75,1.61-9.58,2-14.58,2.35-.66-1.68-.23-3.48-.31-5.23s0-3.63,0-5.44V140.9A62.78,62.78,0,0,1,176.4,160.34Z"/></g><path class="cls-6" d="M293.85,148c-.28-.95-.57-1.89-.76-2.85a21.7,21.7,0,0,0-2-5.85c-1.47-2.76-2.45-5.77-4.48-8.26a16.73,16.73,0,0,1-1.09-1.52,44.27,44.27,0,0,0-2.44-3.73,37.4,37.4,0,0,0-4-4.42c-1.45-1.32-2.9-2.71-4.41-4-.35-.3-.85-.44-1.22-.73a75.24,75.24,0,0,0-7-4.58,39.57,39.57,0,0,0-6.93-3.25,34.74,34.74,0,0,0-10.88-2.62c-1.07,0-2.11-.76-3.33-1.23.47-1.75-.21-3.22-.39-4.76-.12-1-.71-1.86-.64-2.79a7.43,7.43,0,0,0-.66-3.12c-1-2.83-1.77-5.77-3-8.54a80.78,80.78,0,0,0-8.27-14.93,80.66,80.66,0,0,0-5.85-7.07,67.21,67.21,0,0,0-10-8.93,90.13,90.13,0,0,0-9.71-6.14c-2.17-1.18-4.5-2-6.67-3.1-2.93-1.51-6.09-2.1-9.18-3-2.22-.63-4.43-1.53-6.83-1.25-1.2-1.14-2.69-.41-4-.62a22.48,22.48,0,0,0-4-.57c-3.28.13-6.57-.44-9.87.49-1.74.49-3.68.19-5.56.62-2.79.64-5.63,1.13-8.41,1.89a69.35,69.35,0,0,0-11.37,4.33c-1.88.89-3.63,2.05-5.48,3a67.56,67.56,0,0,0-12.67,9.29,60.66,60.66,0,0,0-9.47,10.78,70.85,70.85,0,0,0-4.91,7.74,111.61,111.61,0,0,0-5.59,12.51c-2.25-.81-4.33-2-6.51-2.25-2.45-.26-4.86-1.09-7.39-.74-2.35.32-4.79.16-7.06.74a26.34,26.34,0,0,0-6.67,2.34,60.72,60.72,0,0,0-5.9,3.46,41.13,41.13,0,0,0-5.58,5,48.72,48.72,0,0,0-4,5.63c-1.43,2-2.08,4.29-3.05,6.42s-1,4.49-1.45,7a9.46,9.46,0,0,1-1.35.11,40.17,40.17,0,0,0-10.52,1.19,54.14,54.14,0,0,0-11,3.68,46.45,46.45,0,0,0-10.75,7.22,39.6,39.6,0,0,0-6.61,7c-2.37,3.37-5.14,7.54-6.64,11.65-.29.79-.55,1.58-.81,2.38-.42,1.27-.81,2.55-1.22,3.82-.72,2.22-.67,4.58-1.13,6.86a29.39,29.39,0,0,0-.07,7c0,.91.11,1.83.19,2.74L0,118.31a21,21,0,0,1,.75-4.17c.67-2.07,1.29-4.16,2-6.2,1.5-4.12,4.27-8.28,6.64-11.65a39.26,39.26,0,0,1,6.61-7,46.45,46.45,0,0,1,10.75-7.22,54.58,54.58,0,0,1,11-3.69A40.59,40.59,0,0,1,48.33,77.2a9.46,9.46,0,0,0,1.35-.11c.47-2.46.51-4.91,1.45-7s1.62-4.42,3-6.42a48.72,48.72,0,0,1,4-5.63,41.13,41.13,0,0,1,5.58-5,60.72,60.72,0,0,1,5.9-3.46,26.76,26.76,0,0,1,6.67-2.35c2.27-.57,4.71-.41,7.06-.74,2.53-.35,4.94.48,7.39.75,2.18.24,4.26,1.43,6.51,2.25a112.57,112.57,0,0,1,5.59-12.52,70.71,70.71,0,0,1,4.91-7.73,60.31,60.31,0,0,1,9.47-10.78A66.69,66.69,0,0,1,130,9.25c1.85-1,3.6-2.14,5.48-3A69.39,69.39,0,0,1,146.8,1.88c2.78-.76,5.62-1.24,8.41-1.88,1.88-.43,3.82-.13,5.56-.62,3.3-.93,6.59-.36,9.87-.49a22.48,22.48,0,0,1,4,.57c1.34.2,2.83-.52,4,.61,2.4-.27,4.61.63,6.83,1.26,3.09.87,6.25,1.45,9.18,3,2.17,1.12,4.5,1.91,6.67,3.1a90,90,0,0,1,9.71,6.13,67.27,67.27,0,0,1,10,8.94A80.41,80.41,0,0,1,227,29.53a80.89,80.89,0,0,1,8.28,14.93c1.24,2.78,2,5.71,3,8.55a7.42,7.42,0,0,1,.66,3.11c-.07.94.52,1.81.64,2.8.18,1.53.86,3,.39,4.75,1.22.48,2.26,1.2,3.33,1.24a34.74,34.74,0,0,1,10.88,2.62,38.87,38.87,0,0,1,6.93,3.25,73.25,73.25,0,0,1,7,4.58c.37.29.87.43,1.22.73,1.51,1.29,3,2.68,4.41,4a37.4,37.4,0,0,1,4,4.42c1.31,1.65,2.2,3.62,3.53,5.25,2,2.48,3,5.5,4.48,8.26a21.47,21.47,0,0,1,2,5.85c.31,1.59.94,3.15,1.26,4.77Z"/><polyline class="cls-7" points="294.46 152.85 293.86 147.99 293.85 147.97"/><line class="cls-8" x1="49.68" y1="77.09" x2="55.06" y2="118.34"/><line class="cls-8" x1="97.31" y1="49.57" x2="102.69" y2="90.82"/><line class="cls-8" x1="243.28" y1="64.91" x2="245.33" y2="104.93"/></g></g></svg>