<svg width="157" height="150" xmlns="http://www.w3.org/2000/svg" xmlns:xlink="http://www.w3.org/1999/xlink" viewBox="0 0 277.6 265.83"><defs><style>.cls-1{fill:url(#linear-gradient);}.cls-2{fill:url(#linear-gradient-2);}.cls-3{fill:url(#linear-gradient-3);}.cls-4{fill:#a4dce7;}.cls-5{fill:url(#linear-gradient-4);}.cls-6{fill:url(#linear-gradient-5);}.cls-7{fill:url(#linear-gradient-6);}.cls-8{fill:url(#linear-gradient-7);}.cls-9{fill:url(#linear-gradient-8);}.cls-10{fill:url(#linear-gradient-9);}.cls-11{fill:url(#linear-gradient-10);}.cls-12{fill:url(#radial-gradient);}</style><linearGradient id="linear-gradient" x1="139.86" x2="139.86" y2="19.17" gradientUnits="userSpaceOnUse"><stop offset="0" stop-color="#737577"/><stop offset="0" stop-color="#77797a"/><stop offset="0" stop-color="#828485"/><stop offset="0" stop-color="#959797"/><stop offset="0" stop-color="#acadac"/><stop offset="0.2" stop-color="#a7a8a7"/><stop offset="0.43" stop-color="#989999"/><stop offset="0.69" stop-color="#808181"/><stop offset="0.96" stop-color="#5e5f60"/><stop offset="1" stop-color="#58595b"/></linearGradient><linearGradient id="linear-gradient-2" x1="139.68" y1="162" x2="139.68" y2="181.17" xlink:href="#linear-gradient"/><linearGradient id="linear-gradient-3" x1="139.27" y1="14.17" x2="139.27" y2="179.5" gradientUnits="userSpaceOnUse"><stop offset="0" stop-color="#737577"/><stop offset="0" stop-color="#6f7173"/><stop offset="0" stop-color="#656668"/><stop offset="0" stop-color="#525455"/><stop offset="0" stop-color="#4a4b4c"/><stop offset="0" stop-color="#4e4f50"/><stop offset="0" stop-color="#595b5c"/><stop offset="0" stop-color="#6d6e70"/><stop offset="0" stop-color="#888a8b"/><stop offset="0" stop-color="#abadaf"/><stop offset="0" stop-color="#babcbe"/><stop offset="0.21" stop-color="#b6b8ba"/><stop offset="0.45" stop-color="#a9aaad"/><stop offset="0.69" stop-color="#939597"/><stop offset="0.94" stop-color="#757679"/><stop offset="1" stop-color="#6d6e71"/></linearGradient><linearGradient id="linear-gradient-4" x1="138.93" y1="179.17" x2="138.93" y2="265.83" xlink:href="#linear-gradient-3"/><linearGradient id="linear-gradient-5" x1="176.43" y1="197.5" x2="176.43" y2="226.17" gradientUnits="userSpaceOnUse"><stop offset="0" stop-color="#737577"/><stop offset="0" stop-color="#77797a"/><stop offset="0" stop-color="#828485"/><stop offset="0" stop-color="#959797"/><stop offset="0" stop-color="#b0b1b0"/><stop offset="0" stop-color="#babbb9"/><stop offset="0" stop-color="#b6b7b5"/><stop offset="0" stop-color="#aaabaa"/><stop offset="0" stop-color="#979796"/><stop offset="0" stop-color="#7b7c7b"/><stop offset="0" stop-color="#585858"/><stop offset="0" stop-color="#4a4a4a"/><stop offset="0.46" stop-color="#4d4e4e"/><stop offset="0.92" stop-color="#58595a"/><stop offset="1" stop-color="#5a5b5d"/></linearGradient><linearGradient id="linear-gradient-6" x1="24.93" x2="24.93" y2="244" xlink:href="#linear-gradient-5"/><linearGradient id="linear-gradient-7" x1="43.43" x2="43.43" y2="244" xlink:href="#linear-gradient-5"/><linearGradient id="linear-gradient-8" x1="61.93" x2="61.93" y2="244" xlink:href="#linear-gradient-5"/><linearGradient id="linear-gradient-9" x1="80.93" x2="80.93" y2="244" xlink:href="#linear-gradient-5"/><linearGradient id="linear-gradient-10" x1="254.99" y1="235.92" x2="254.99" y2="244.42" xlink:href="#linear-gradient-5"/><radialGradient id="radial-gradient" cx="242.23" cy="234" r="4.95" gradientTransform="translate(132.57 -78.24) rotate(26.97)" gradientUnits="userSpaceOnUse"><stop offset="0.17" stop-color="#a7a9ac"/><stop offset="0.23" stop-color="#a3a5a7"/><stop offset="1" stop-color="#6d6e71"/></radialGradient></defs><title>Refined</title><g id="Layer_10" data-name="Layer 10"><g id="Layer_22" data-name="Layer 22"><path class="cls-1" d="M37.42,17.72l12.3-15A7.36,7.36,0,0,1,55.42,0H223.11a7.36,7.36,0,0,1,5.7,2.7l13.48,16.47"/><path class="cls-2" d="M2.93,179.72l16.42-15A11.38,11.38,0,0,1,27,162H250.82a11.4,11.4,0,0,1,7.62,2.7l18,16.47"/></g></g><g id="Layer_16" data-name="Layer 16"><path class="cls-3" d="M45.69,14.17H232.85a11.42,11.42,0,0,1,11.42,11.42V179.5h-210V25.59A11.42,11.42,0,0,1,45.69,14.17Z"/></g><g id="Layer_17" data-name="Layer 17"><path class="cls-4" d="M64.53,33.08H214A12.59,12.59,0,0,1,226.6,45.67V148A12.59,12.59,0,0,1,214,160.58H64.52A12.59,12.59,0,0,1,51.93,148V45.68A12.6,12.6,0,0,1,64.53,33.08Z"/></g><g id="Layer_18" data-name="Layer 18"><path class="cls-5" d="M4.8,179.17H273.06a4.54,4.54,0,0,1,4.54,4.54v77.6a4.54,4.54,0,0,1-4.54,4.54H4.8A4.54,4.54,0,0,1,.27,261.3V183.7A4.53,4.53,0,0,1,4.8,179.17Z"/></g><g id="Layer_19" data-name="Layer 19"><path class="cls-6" d="M94.43,202.48v18.7a5,5,0,0,0,5,5h154a5,5,0,0,0,5-5V202.49a5,5,0,0,0-5-5h-154A5,5,0,0,0,94.43,202.48Z"/></g><g id="Layer_20" data-name="Layer 20"><path class="cls-7" d="M22.05,197.5h5.77a2.61,2.61,0,0,1,2.61,2.61v41.28A2.61,2.61,0,0,1,27.82,244H22a2.61,2.61,0,0,1-2.61-2.61V200.12A2.62,2.62,0,0,1,22.05,197.5Z"/><path class="cls-8" d="M40.55,197.5h5.77a2.61,2.61,0,0,1,2.61,2.61v41.28A2.61,2.61,0,0,1,46.32,244H40.54a2.61,2.61,0,0,1-2.61-2.61V200.12A2.62,2.62,0,0,1,40.55,197.5Z"/><path class="cls-9" d="M59.05,197.5h5.77a2.61,2.61,0,0,1,2.61,2.61v41.28A2.61,2.61,0,0,1,64.82,244H59a2.61,2.61,0,0,1-2.61-2.61V200.12A2.62,2.62,0,0,1,59.05,197.5Z"/><path class="cls-10" d="M78.05,197.5h5.77a2.61,2.61,0,0,1,2.61,2.61v41.28A2.61,2.61,0,0,1,83.82,244H78a2.61,2.61,0,0,1-2.61-2.61V200.12A2.62,2.62,0,0,1,78.05,197.5Z"/><path class="cls-11" d="M252.52,235.92h4.94c1.23,0,2.22.21,2.22.47v7.55c0,.26-1,.48-2.22.48h-4.94c-1.23,0-2.23-.22-2.23-.48v-7.55C250.29,236.13,251.29,235.92,252.52,235.92Z"/><circle class="cls-12" cx="242.33" cy="240.17" r="4.95"/></g></svg>