<svg width="300" height="125" xmlns="http://www.w3.org/2000/svg" xmlns:xlink="http://www.w3.org/1999/xlink" viewBox="0 0 329 137.33"><defs><style>.cls-1{fill:url(#radial-gradient);}.cls-2{fill:url(#linear-gradient);}.cls-3{fill:url(#linear-gradient-2);}.cls-4{fill:url(#radial-gradient-2);}.cls-5{fill:url(#radial-gradient-3);}.cls-6{fill:url(#linear-gradient-3);}</style><radialGradient id="radial-gradient" cx="164.5" cy="32.5" r="118.57" gradientTransform="translate(134.17 239.96) rotate(-120) scale(1 4)" gradientUnits="userSpaceOnUse"><stop offset="0.17" stop-color="#a7a9ac"/><stop offset="0.23" stop-color="#a3a5a7"/><stop offset="1" stop-color="#6d6e71"/></radialGradient><linearGradient id="linear-gradient" x1="164.5" y1="65" x2="164.5" y2="137.67" gradientUnits="userSpaceOnUse"><stop offset="0" stop-color="#b0b0b0"/><stop offset="0.3" stop-color="#acacad"/><stop offset="0.58" stop-color="#a1a1a2"/><stop offset="0.85" stop-color="#8e8f91"/><stop offset="1" stop-color="#808285"/></linearGradient><linearGradient id="linear-gradient-2" x1="162.33" y1="93.67" x2="162.33" y2="137.33" gradientUnits="userSpaceOnUse"><stop offset="0" stop-color="#58595b"/><stop offset="0.4" stop-color="#555557"/><stop offset="0.79" stop-color="#4a4a4c"/><stop offset="1" stop-color="#414042"/></linearGradient><radialGradient id="radial-gradient-2" cx="217.5" cy="115.5" r="7.83" gradientTransform="matrix(1, 0, 0, 1, 0, 0)" xlink:href="#radial-gradient"/><radialGradient id="radial-gradient-3" cx="248.67" cy="115.5" r="7.83" gradientTransform="matrix(1, 0, 0, 1, 0, 0)" xlink:href="#radial-gradient"/><linearGradient id="linear-gradient-3" x1="160.5" y1="36.33" x2="160.5" y2="18" gradientUnits="userSpaceOnUse"><stop offset="0" stop-color="#737577"/><stop offset="0" stop-color="#6f7173"/><stop offset="0" stop-color="#656668"/><stop offset="0" stop-color="#525455"/><stop offset="0" stop-color="#4a4b4c"/><stop offset="0.48" stop-color="#4e4f50"/><stop offset="0.96" stop-color="#595a5c"/><stop offset="1" stop-color="#5a5b5d"/></linearGradient></defs><title>Refined</title><g id="Layer_4" data-name="Layer 4"><path class="cls-1" d="M30.18,10.5,0,65H329L293.06,9.38A20.5,20.5,0,0,0,275.83,0H48A20.38,20.38,0,0,0,30.18,10.5Z"/></g><g id="Layer_6" data-name="Layer 6"><path class="cls-2" d="M0,65H329v57.67a14.94,14.94,0,0,1-14.87,15H16.39A14.31,14.31,0,0,1,2.14,123.82Z"/></g><g id="Layer_7" data-name="Layer 7"><path class="cls-3" d="M49,137.33V107.77a14.1,14.1,0,0,1,14.11-14.1H261.69a14,14,0,0,1,14,14v29.69Z"/></g><g id="Layer_10" data-name="Layer 10"><g id="Layer_8" data-name="Layer 8"><circle class="cls-4" cx="217.5" cy="115.5" r="7.83"/><circle class="cls-5" cx="248.67" cy="115.5" r="7.83"/></g><path class="cls-6" d="M105.25,30.13l1.45-4A12.4,12.4,0,0,1,118.35,18H203a12.4,12.4,0,0,1,11.92,9l1,3.43a4.61,4.61,0,0,1-4.44,5.87H109.6A4.62,4.62,0,0,1,105.25,30.13Z"/></g></svg>