<svg width="113" height="150" xmlns="http://www.w3.org/2000/svg" xmlns:xlink="http://www.w3.org/1999/xlink" viewBox="0 0 189.55 251.01"><defs><style>.cls-1{fill:url(#linear-gradient);}.cls-2{fill:url(#radial-gradient);}.cls-3{fill:#505153;}.cls-4{fill:url(#linear-gradient-2);}.cls-5{fill:url(#linear-gradient-3);}.cls-6{fill:url(#linear-gradient-4);}.cls-7{fill:url(#linear-gradient-5);}.cls-8{fill:url(#linear-gradient-6);}.cls-9{fill:url(#linear-gradient-7);}.cls-10{fill:url(#linear-gradient-8);}.cls-11{fill:url(#linear-gradient-9);}.cls-12{fill:url(#linear-gradient-10);}.cls-13{fill:url(#linear-gradient-11);}.cls-14{fill:url(#linear-gradient-12);}.cls-15{fill:url(#linear-gradient-13);}.cls-16{fill:url(#linear-gradient-14);}.cls-17{fill:url(#linear-gradient-15);}.cls-18{fill:url(#linear-gradient-16);}.cls-19{fill:url(#linear-gradient-17);}.cls-20{fill:url(#linear-gradient-18);}.cls-21{fill:url(#linear-gradient-19);}.cls-22{fill:url(#linear-gradient-20);}.cls-23{fill:url(#linear-gradient-21);}.cls-24{fill:url(#linear-gradient-22);}.cls-25{fill:url(#linear-gradient-23);}.cls-26{fill:url(#linear-gradient-24);}.cls-27{fill:url(#linear-gradient-25);}.cls-28{fill:url(#linear-gradient-26);}.cls-29{fill:url(#linear-gradient-27);}.cls-30{fill:url(#linear-gradient-28);}.cls-31{fill:url(#linear-gradient-29);}.cls-32{fill:url(#linear-gradient-30);}.cls-33{fill:url(#linear-gradient-31);}.cls-34{fill:url(#linear-gradient-32);}.cls-35{fill:url(#linear-gradient-33);}.cls-36{fill:url(#linear-gradient-34);}.cls-37{fill:url(#linear-gradient-35);}.cls-38{fill:url(#linear-gradient-36);}.cls-39{fill:url(#linear-gradient-37);}.cls-40{fill:url(#linear-gradient-38);}.cls-41{fill:url(#linear-gradient-39);}.cls-42{fill:url(#linear-gradient-40);}.cls-43{fill:url(#linear-gradient-41);}.cls-44{fill:url(#linear-gradient-42);}.cls-45{fill:url(#linear-gradient-43);}.cls-46{fill:url(#linear-gradient-44);}.cls-47{fill:url(#linear-gradient-45);}.cls-48{fill:url(#linear-gradient-46);}.cls-49{fill:url(#linear-gradient-47);}.cls-50{fill:url(#linear-gradient-48);}.cls-51{fill:url(#linear-gradient-49);}.cls-52{fill:url(#linear-gradient-50);}.cls-53{fill:url(#linear-gradient-51);}.cls-54{fill:url(#linear-gradient-52);}.cls-55{fill:url(#linear-gradient-53);}.cls-56{fill:url(#linear-gradient-54);}.cls-57{fill:url(#radial-gradient-2);}.cls-58{fill:url(#radial-gradient-4);}.cls-59{fill:url(#radial-gradient-5);}.cls-60{fill:url(#radial-gradient-6);}.cls-61{fill:url(#radial-gradient-7);}</style><linearGradient id="linear-gradient" x1="94.33" y1="208.64" x2="95.51" y2="-158.54" gradientUnits="userSpaceOnUse"><stop offset="0" stop-color="#737577"/><stop offset="0" stop-color="#6f7173"/><stop offset="0" stop-color="#656668"/><stop offset="0" stop-color="#525455"/><stop offset="0" stop-color="#4a4b4c"/><stop offset="0" stop-color="#4e4f50"/><stop offset="0" stop-color="#595b5c"/><stop offset="0" stop-color="#6d6e70"/><stop offset="0" stop-color="#888a8b"/><stop offset="0" stop-color="#abadaf"/><stop offset="0" stop-color="#babcbe"/><stop offset="0.21" stop-color="#b6b8ba"/><stop offset="0.45" stop-color="#a9aaad"/><stop offset="0.69" stop-color="#939597"/><stop offset="0.94" stop-color="#757679"/><stop offset="1" stop-color="#6d6e71"/></linearGradient><radialGradient id="radial-gradient" cx="-1.54" cy="313.83" r="309.05" gradientUnits="userSpaceOnUse"><stop offset="0" stop-color="#a7a9ac"/><stop offset="0" stop-color="#4a4b4c"/><stop offset="1" stop-color="#5a5b5d"/></radialGradient><linearGradient id="linear-gradient-2" x1="-277.37" y1="-19.78" x2="337.08" y2="62.06" xlink:href="#linear-gradient"/><linearGradient id="linear-gradient-3" x1="-277.16" y1="-21.33" x2="337.29" y2="60.5" xlink:href="#linear-gradient"/><linearGradient id="linear-gradient-4" x1="-275.62" y1="-22.71" x2="338.82" y2="59.12" xlink:href="#linear-gradient"/><linearGradient id="linear-gradient-5" x1="-275.41" y1="-24.27" x2="339.03" y2="57.56" xlink:href="#linear-gradient"/><linearGradient id="linear-gradient-6" x1="-278.7" y1="-9.78" x2="335.75" y2="72.05" xlink:href="#linear-gradient"/><linearGradient id="linear-gradient-7" x1="-278.49" y1="-11.34" x2="335.96" y2="70.49" xlink:href="#linear-gradient"/><linearGradient id="linear-gradient-8" x1="-276.95" y1="-12.72" x2="337.49" y2="69.12" xlink:href="#linear-gradient"/><linearGradient id="linear-gradient-9" x1="-276.74" y1="-14.27" x2="337.7" y2="67.56" xlink:href="#linear-gradient"/><linearGradient id="linear-gradient-10" x1="-280" y1="-0.02" x2="334.45" y2="81.81" xlink:href="#linear-gradient"/><linearGradient id="linear-gradient-11" x1="-279.78" y1="-1.58" x2="334.66" y2="80.26" xlink:href="#linear-gradient"/><linearGradient id="linear-gradient-12" x1="-278.25" y1="-2.95" x2="336.19" y2="78.88" xlink:href="#linear-gradient"/><linearGradient id="linear-gradient-13" x1="-278.05" y1="-4.51" x2="336.4" y2="77.32" xlink:href="#linear-gradient"/><linearGradient id="linear-gradient-14" x1="-272.09" y1="74.66" x2="438.69" y2="-6.69" xlink:href="#linear-gradient"/><linearGradient id="linear-gradient-15" x1="-275.97" y1="23.98" x2="338.47" y2="105.81" xlink:href="#linear-gradient"/><linearGradient id="linear-gradient-16" x1="-275.77" y1="22.42" x2="338.68" y2="104.25" xlink:href="#linear-gradient"/><linearGradient id="linear-gradient-17" x1="-274.23" y1="21.05" x2="340.22" y2="102.88" xlink:href="#linear-gradient"/><linearGradient id="linear-gradient-18" x1="-274.02" y1="19.49" x2="340.42" y2="101.32" xlink:href="#linear-gradient"/><linearGradient id="linear-gradient-19" x1="-277.3" y1="33.97" x2="337.14" y2="115.8" xlink:href="#linear-gradient"/><linearGradient id="linear-gradient-20" x1="-277.1" y1="32.41" x2="337.35" y2="114.24" xlink:href="#linear-gradient"/><linearGradient id="linear-gradient-21" x1="-275.56" y1="31.04" x2="338.89" y2="112.87" xlink:href="#linear-gradient"/><linearGradient id="linear-gradient-22" x1="-275.35" y1="29.48" x2="339.09" y2="111.31" xlink:href="#linear-gradient"/><linearGradient id="linear-gradient-23" x1="-278.6" y1="43.73" x2="335.84" y2="125.57" xlink:href="#linear-gradient"/><linearGradient id="linear-gradient-24" x1="-278.39" y1="42.18" x2="336.06" y2="124.01" xlink:href="#linear-gradient"/><linearGradient id="linear-gradient-25" x1="-276.86" y1="40.8" x2="337.59" y2="122.63" xlink:href="#linear-gradient"/><linearGradient id="linear-gradient-26" x1="-276.65" y1="39.24" x2="337.79" y2="121.08" xlink:href="#linear-gradient"/><linearGradient id="linear-gradient-27" x1="-270.7" y1="118.42" x2="440.08" y2="37.06" xlink:href="#linear-gradient"/><linearGradient id="linear-gradient-28" x1="-276.13" y1="68.76" x2="338.32" y2="150.6" xlink:href="#linear-gradient"/><linearGradient id="linear-gradient-29" x1="-275.92" y1="67.21" x2="338.52" y2="149.04" xlink:href="#linear-gradient"/><linearGradient id="linear-gradient-30" x1="-274.39" y1="65.83" x2="340.06" y2="147.66" xlink:href="#linear-gradient"/><linearGradient id="linear-gradient-31" x1="-274.18" y1="64.27" x2="340.27" y2="146.1" xlink:href="#linear-gradient"/><linearGradient id="linear-gradient-32" x1="-277.46" y1="78.76" x2="336.98" y2="160.59" xlink:href="#linear-gradient"/><linearGradient id="linear-gradient-33" x1="-277.25" y1="77.2" x2="337.19" y2="159.03" xlink:href="#linear-gradient"/><linearGradient id="linear-gradient-34" x1="-275.72" y1="75.82" x2="338.73" y2="157.65" xlink:href="#linear-gradient"/><linearGradient id="linear-gradient-35" x1="-275.51" y1="74.27" x2="338.94" y2="156.1" xlink:href="#linear-gradient"/><linearGradient id="linear-gradient-36" x1="-278.76" y1="88.52" x2="335.68" y2="170.35" xlink:href="#linear-gradient"/><linearGradient id="linear-gradient-37" x1="-278.55" y1="86.96" x2="335.9" y2="168.79" xlink:href="#linear-gradient"/><linearGradient id="linear-gradient-38" x1="-277.02" y1="85.59" x2="337.43" y2="167.42" xlink:href="#linear-gradient"/><linearGradient id="linear-gradient-39" x1="-276.81" y1="84.03" x2="337.64" y2="165.86" xlink:href="#linear-gradient"/><linearGradient id="linear-gradient-40" x1="-270.86" y1="163.2" x2="439.92" y2="81.84" xlink:href="#linear-gradient"/><linearGradient id="linear-gradient-41" x1="-273.03" y1="112.67" x2="341.42" y2="194.5" xlink:href="#linear-gradient"/><linearGradient id="linear-gradient-42" x1="-272.82" y1="111.11" x2="341.62" y2="192.94" xlink:href="#linear-gradient"/><linearGradient id="linear-gradient-43" x1="-271.29" y1="109.74" x2="343.16" y2="191.57" xlink:href="#linear-gradient"/><linearGradient id="linear-gradient-44" x1="-271.08" y1="108.18" x2="343.37" y2="190.01" xlink:href="#linear-gradient"/><linearGradient id="linear-gradient-45" x1="-274.36" y1="122.66" x2="340.09" y2="204.49" xlink:href="#linear-gradient"/><linearGradient id="linear-gradient-46" x1="-274.15" y1="121.1" x2="340.29" y2="202.93" xlink:href="#linear-gradient"/><linearGradient id="linear-gradient-47" x1="-272.62" y1="119.73" x2="341.83" y2="201.56" xlink:href="#linear-gradient"/><linearGradient id="linear-gradient-48" x1="-272.41" y1="118.17" x2="342.04" y2="200" xlink:href="#linear-gradient"/><linearGradient id="linear-gradient-49" x1="-275.66" y1="132.42" x2="338.79" y2="214.26" xlink:href="#linear-gradient"/><linearGradient id="linear-gradient-50" x1="-275.45" y1="130.87" x2="339" y2="212.7" xlink:href="#linear-gradient"/><linearGradient id="linear-gradient-51" x1="-273.92" y1="129.49" x2="340.53" y2="211.32" xlink:href="#linear-gradient"/><linearGradient id="linear-gradient-52" x1="-273.71" y1="127.93" x2="340.74" y2="209.77" xlink:href="#linear-gradient"/><linearGradient id="linear-gradient-53" x1="-267.76" y1="207.11" x2="443.03" y2="125.75" xlink:href="#linear-gradient"/><linearGradient id="linear-gradient-54" x1="-151.92" y1="186.04" x2="64.72" y2="29.48" xlink:href="#linear-gradient"/><radialGradient id="radial-gradient-2" cx="4.21" cy="297.62" r="275.57" xlink:href="#radial-gradient"/><radialGradient id="radial-gradient-4" cx="439.97" cy="214.45" r="3.3" gradientTransform="translate(-131.27 -308.02) rotate(26.97)" gradientUnits="userSpaceOnUse"><stop offset="0.17" stop-color="#a7a9ac"/><stop offset="0.23" stop-color="#a3a5a7"/><stop offset="1" stop-color="#6d6e71"/></radialGradient><radialGradient id="radial-gradient-5" cx="460.35" cy="254.5" r="3.3" xlink:href="#radial-gradient-4"/><radialGradient id="radial-gradient-6" cx="481.32" cy="293.45" r="3.3" xlink:href="#radial-gradient-4"/><radialGradient id="radial-gradient-7" cx="420.43" cy="173.79" r="3.3" xlink:href="#radial-gradient-4"/></defs><title>Refined</title><g id="Layer_43" data-name="Layer 43"><rect class="cls-1" y="5.68" width="189.21" height="238.4" rx="7.67"/><path class="cls-2" d="M0,210H189.21V236.4a7.68,7.68,0,0,1-7.68,7.68H7.67A7.68,7.68,0,0,1,0,236.4Z"/><rect class="cls-3" x="16.08" y="19.33" width="127.24" height="36.42" rx="3.84"/><rect class="cls-4" x="72.13" y="23.59" width="8.99" height="7.57"/><rect class="cls-5" x="84.04" y="23.59" width="8.99" height="7.57"/><rect class="cls-6" x="95.9" y="23.59" width="8.99" height="7.57"/><rect class="cls-7" x="107.81" y="23.59" width="8.99" height="7.57"/><rect class="cls-8" x="72.13" y="33.75" width="8.99" height="7.57"/><rect class="cls-9" x="84.04" y="33.75" width="8.99" height="7.57"/><rect class="cls-10" x="95.9" y="33.75" width="8.99" height="7.57"/><rect class="cls-11" x="107.81" y="33.75" width="8.99" height="7.57"/><rect class="cls-12" x="72.11" y="43.69" width="8.99" height="7.57"/><rect class="cls-13" x="84.01" y="43.69" width="8.99" height="7.57"/><rect class="cls-14" x="95.88" y="43.69" width="8.99" height="7.57"/><rect class="cls-15" x="107.78" y="43.69" width="8.99" height="7.57"/><rect class="cls-16" x="24.12" y="36.12" width="47.98" height="3.78"/><rect class="cls-3" x="157.99" y="17.97" width="13.24" height="36.42" rx="6.62"/><rect class="cls-3" x="17.48" y="63.08" width="127.24" height="36.42" rx="3.84"/><rect class="cls-17" x="73.53" y="67.34" width="8.99" height="7.57"/><rect class="cls-18" x="85.43" y="67.34" width="8.99" height="7.57"/><rect class="cls-19" x="97.3" y="67.34" width="8.99" height="7.57"/><rect class="cls-20" x="109.2" y="67.34" width="8.99" height="7.57"/><rect class="cls-21" x="73.53" y="77.51" width="8.99" height="7.57"/><rect class="cls-22" x="85.43" y="77.51" width="8.99" height="7.57"/><rect class="cls-23" x="97.3" y="77.51" width="8.99" height="7.57"/><rect class="cls-24" x="109.2" y="77.51" width="8.99" height="7.57"/><rect class="cls-25" x="73.5" y="87.44" width="8.99" height="7.57"/><rect class="cls-26" x="85.41" y="87.44" width="8.99" height="7.57"/><rect class="cls-27" x="97.27" y="87.44" width="8.99" height="7.57"/><rect class="cls-28" x="109.17" y="87.44" width="8.99" height="7.57"/><rect class="cls-29" x="25.52" y="79.87" width="47.98" height="3.78"/><rect class="cls-3" x="17.32" y="107.87" width="127.24" height="36.42" rx="3.84"/><rect class="cls-30" x="73.37" y="112.12" width="8.99" height="7.57"/><rect class="cls-31" x="85.27" y="112.12" width="8.99" height="7.57"/><rect class="cls-32" x="97.14" y="112.12" width="8.99" height="7.57"/><rect class="cls-33" x="109.04" y="112.12" width="8.99" height="7.57"/><rect class="cls-34" x="73.37" y="122.29" width="8.99" height="7.57"/><rect class="cls-35" x="85.27" y="122.29" width="8.99" height="7.57"/><rect class="cls-36" x="97.14" y="122.29" width="8.99" height="7.57"/><rect class="cls-37" x="109.04" y="122.29" width="8.99" height="7.57"/><rect class="cls-38" x="73.34" y="132.23" width="8.99" height="7.57"/><rect class="cls-39" x="85.25" y="132.23" width="8.99" height="7.57"/><rect class="cls-40" x="97.11" y="132.23" width="8.99" height="7.57"/><rect class="cls-41" x="109.02" y="132.23" width="8.99" height="7.57"/><rect class="cls-42" x="25.36" y="124.66" width="47.98" height="3.78"/><rect class="cls-3" x="20.42" y="151.77" width="127.24" height="36.42" rx="3.84"/><rect class="cls-43" x="76.47" y="156.03" width="8.99" height="7.57"/><rect class="cls-44" x="88.37" y="156.03" width="8.99" height="7.57"/><rect class="cls-45" x="100.24" y="156.03" width="8.99" height="7.57"/><rect class="cls-46" x="112.14" y="156.03" width="8.99" height="7.57"/><rect class="cls-47" x="76.47" y="166.2" width="8.99" height="7.57"/><rect class="cls-48" x="88.37" y="166.2" width="8.99" height="7.57"/><rect class="cls-49" x="100.24" y="166.2" width="8.99" height="7.57"/><rect class="cls-50" x="112.14" y="166.2" width="8.99" height="7.57"/><rect class="cls-51" x="76.44" y="176.13" width="8.99" height="7.57"/><rect class="cls-52" x="88.35" y="176.13" width="8.99" height="7.57"/><rect class="cls-53" x="100.21" y="176.13" width="8.99" height="7.57"/><rect class="cls-54" x="112.12" y="176.13" width="8.99" height="7.57"/><rect class="cls-55" x="28.46" y="168.56" width="47.98" height="3.78"/><path class="cls-56" d="M3.63,6.84l6.58-5.19A7.66,7.66,0,0,1,15,0H176a7.63,7.63,0,0,1,5.51,2.34l5.67,5.85"/><polyline class="cls-57" points="40.05 244.07 40.05 251.01 24.12 251.01 24.12 244.07"/><polyline class="cls-57" points="147.66 244.07 147.66 251.01 163.58 251.01 163.58 244.07"/><rect class="cls-3" x="156.96" y="63.08" width="13.24" height="36.42" rx="6.62"/><circle class="cls-58" cx="163.58" cy="82.65" r="3.3"/><rect class="cls-3" x="156.96" y="108.02" width="13.24" height="36.42" rx="6.62"/><circle class="cls-59" cx="163.58" cy="127.58" r="3.3"/><rect class="cls-3" x="157.99" y="152.24" width="13.24" height="36.42" rx="6.62"/><circle class="cls-60" cx="164.61" cy="171.8" r="3.3"/></g><g id="Layer_44" data-name="Layer 44"><circle class="cls-61" cx="164.61" cy="37.54" r="3.3"/></g></svg>