<svg width="82" height="150" xmlns="http://www.w3.org/2000/svg" xmlns:xlink="http://www.w3.org/1999/xlink" viewBox="0 0 110.65 201.69"><defs><style>.cls-1{fill:url(#radial-gradient);}.cls-2{fill:url(#linear-gradient);}.cls-3{fill:#a4dce7;}.cls-4{fill:url(#linear-gradient-2);}.cls-5{fill:url(#linear-gradient-3);}.cls-6{fill:url(#linear-gradient-4);}.cls-7{fill:url(#linear-gradient-5);}</style><radialGradient id="radial-gradient" cx="59.45" cy="99.57" r="79.2" gradientUnits="userSpaceOnUse"><stop offset="0" stop-color="#a7a9ac"/><stop offset="0" stop-color="#4a4b4c"/><stop offset="1" stop-color="#5a5b5d"/></radialGradient><linearGradient id="linear-gradient" x1="53.45" y1="-75.8" x2="51.05" y2="302.51" gradientUnits="userSpaceOnUse"><stop offset="0" stop-color="#737577"/><stop offset="0" stop-color="#6f7173"/><stop offset="0" stop-color="#656668"/><stop offset="0" stop-color="#525455"/><stop offset="0" stop-color="#4a4b4c"/><stop offset="0" stop-color="#4e4f50"/><stop offset="0" stop-color="#595b5c"/><stop offset="0" stop-color="#6d6e70"/><stop offset="0" stop-color="#888a8b"/><stop offset="0" stop-color="#abadaf"/><stop offset="0" stop-color="#babcbe"/><stop offset="0.21" stop-color="#b6b8ba"/><stop offset="0.45" stop-color="#a9aaad"/><stop offset="0.69" stop-color="#939597"/><stop offset="0.94" stop-color="#757679"/><stop offset="1" stop-color="#6d6e71"/></linearGradient><linearGradient id="linear-gradient-2" x1="25.02" y1="17.24" x2="30.94" y2="17.24" gradientUnits="userSpaceOnUse"><stop offset="0" stop-color="#737577"/><stop offset="0" stop-color="#77797a"/><stop offset="0" stop-color="#828485"/><stop offset="0" stop-color="#959797"/><stop offset="0" stop-color="#b0b1b0"/><stop offset="0" stop-color="#babbb9"/><stop offset="0" stop-color="#b6b7b5"/><stop offset="0" stop-color="#aaabaa"/><stop offset="0" stop-color="#979796"/><stop offset="0" stop-color="#7b7c7b"/><stop offset="0" stop-color="#585858"/><stop offset="0" stop-color="#4a4a4a"/><stop offset="0.46" stop-color="#4d4e4e"/><stop offset="0.92" stop-color="#58595a"/><stop offset="1" stop-color="#5a5b5d"/></linearGradient><linearGradient id="linear-gradient-3" x1="16.49" y1="17.24" x2="21.54" y2="17.24" xlink:href="#linear-gradient-2"/><linearGradient id="linear-gradient-4" x1="42.76" y1="17.24" x2="61.86" y2="17.24" xlink:href="#linear-gradient-2"/><linearGradient id="linear-gradient-5" x1="44.3" y1="195.06" x2="52.65" y2="195.06" xlink:href="#linear-gradient-2"/></defs><title>Refined</title><g id="Layer_33" data-name="Layer 33"><path class="cls-1" d="M8.16,8.43S16,0,23.57,0H94.94s8.82.4,12.83,12.83c3.63,11.25,3,143.44,2.83,168.37a14,14,0,0,1-2.4,7.76c-2.48,3.68-6.39,8.94-9.27,10.18"/><path class="cls-2" d="M.7,19.22a7.25,7.25,0,0,1,.55-2.71,16.3,16.3,0,0,1,9.49-9.27c7.4-2.61,71.86-.4,81.73,0a7.37,7.37,0,0,1,2.85.69A15.24,15.24,0,0,1,103.76,18c1.93,8.12.14,160.37,0,171.39a7.84,7.84,0,0,1-.16,1.44c-.49,2.2-2.32,8.29-7.87,10-6.28,1.9-72.1.3-82.44,0a7.29,7.29,0,0,1-2.79-.64c-2.74-1.23-8.58-4.31-9.8-8.57C-.81,186.32.56,34.15.7,19.22Z"/><path class="cls-3" d="M19.17,25H85.46C91,25,95.52,30.28,95.52,36.8V175.9c0,6.53-4.51,11.82-10.06,11.82H19.17c-5.56,0-10.06-5.29-10.06-11.82V36.8C9.11,30.28,13.61,25,19.17,25Z"/><circle class="cls-4" cx="27.98" cy="17.24" r="2.96"/><circle class="cls-5" cx="19.01" cy="17.24" r="2.52"/></g><g id="Layer_35" data-name="Layer 35"><rect class="cls-6" x="42.76" y="15.74" width="19.1" height="3.01" rx="1.22"/><circle class="cls-7" cx="48.48" cy="195.06" r="4.17"/></g></svg>