<svg id="Layer_1" data-name="Layer 1" xmlns="http://www.w3.org/2000/svg" viewBox="0 0 16 16"><path d="M13.71,10.29a1.91,1.91,0,0,0-1.43.05h0L9.43,5.48l-.1-.17h0a1.78,1.78,0,0,0,.46-.7,1.86,1.86,0,1,0-3.22.49L4.3,6.84a1.84,1.84,0,0,0-.71-.47,1.82,1.82,0,0,0-1.43,0,1.86,1.86,0,0,0,.13,3.44,1.82,1.82,0,0,0,.65.12A1.89,1.89,0,0,0,4,9.65a1.83,1.83,0,0,0,.7-.89,1.92,1.92,0,0,0-.17-1.64L6.81,5.36a1.74,1.74,0,0,0,.59.35A1.81,1.81,0,0,0,8,5.83a1.89,1.89,0,0,0,1-.3l2.92,5h0a1.9,1.9,0,0,0-.66.87,1.87,1.87,0,0,0,1.1,2.39,1.86,1.86,0,1,0,1.3-3.49ZM4.35,8.64a1.5,1.5,0,0,1-2.78.1,1.48,1.48,0,0,1-.05-1.15,1.52,1.52,0,0,1,1.42-1,1.58,1.58,0,0,1,.52.09l.22.1,0,0,.11.08a.1.1,0,0,1,0,0l0,0L4,7,4,7l.06.06,0,.06h0l0,0,0,0a1.18,1.18,0,0,1,.11.19.08.08,0,0,1,0,0l0,0s0,0,0,0h0s0,0,0,.05,0,0,0,.07v0s0,0,0,.06,0,.06,0,.1v0s0,0,0,0A1.54,1.54,0,0,1,4.35,8.64ZM7.52,5.38A1.5,1.5,0,0,1,7,5H7a1.34,1.34,0,0,1-.11-.14,1.48,1.48,0,0,1-.22-1.44,1.52,1.52,0,0,1,.78-.85A1.55,1.55,0,0,1,8,2.46a1.6,1.6,0,0,1,.53.09A1.51,1.51,0,1,1,7.52,5.38Zm7,7.18a1.5,1.5,0,0,1-.79.85,1.53,1.53,0,0,1-1.15,0,1.5,1.5,0,0,1-.85-.79,1.48,1.48,0,0,1,0-1.15h0l0-.07,0-.07,0-.06h0l0-.05.08-.12,0,0,0,0L12,11l0,0h0l0,0,0,0,0,0,0,0,0,0,0,0,0,0h0a.34.34,0,0,1,.12-.06,1.41,1.41,0,0,1,.63-.14,1.54,1.54,0,0,1,.52.09,1.5,1.5,0,0,1,.85.79A1.48,1.48,0,0,1,14.48,12.56Z"/></svg>