<svg id="Layer_1" data-name="Layer 1" xmlns="http://www.w3.org/2000/svg" xmlns:xlink="http://www.w3.org/1999/xlink" viewBox="0 0 510.85 165.99"><defs><style>.cls-1{fill:none;}.cls-2{clip-path:url(#clip-path);}#Layer_1{fill:white;}</style><clipPath id="clip-path"><rect class="cls-1" x="-52.5" y="-52.5" width="615.86" height="271.23"/></clipPath></defs><g class="cls-2"><path d="M353.12,121.64l-2.07,1.4.5-.37.51-.36.53-.34C352.76,121.85,352.94,121.75,353.12,121.64Z"/><path d="M278,41.08a19.47,19.47,0,0,1-1.64-1.89l.11-.09Z"/><path d="M243.45,70.77c-.45-.7-.92-1.39-1.43-2s-1.05-1.3-1.62-1.91a26.24,26.24,0,0,0-43.8,8.79,26.25,26.25,0,1,0,46.85-4.83ZM241.14,92.1a21.24,21.24,0,1,1-9.46-25.88c.19.1.37.21.55.32a17,17,0,0,1,1.5,1c.27.2.55.41.81.62l.42.35c.23.19.45.39.67.59s.28.26.41.4.53.53.78.8.53.59.78.9l.07.08.38.49c.11.14.22.27.32.41a19.1,19.1,0,0,1,1.6,2.58c.13.23.25.47.36.71s.23.48.33.72.2.45.29.68a.32.32,0,0,1,0,.09c.1.23.18.47.27.7s.2.59.28.88.13.43.19.65.14.51.19.77a13.52,13.52,0,0,1,.28,1.41c0,.17.05.34.07.51a3.47,3.47,0,0,1,.06.45A21.16,21.16,0,0,1,241.14,92.1Z"/><path d="M373,115.37a26.06,26.06,0,0,0-20.08.76l-.09,0L312.66,47.62l-1.4-2.38h0a26,26,0,0,0,6.51-9.87,26.25,26.25,0,1,0-45.42,6.87l-32,24.58c.57.61,1.11,1.25,1.62,1.91s1,1.35,1.43,2l32.32-24.86a26.22,26.22,0,0,0,31.53,2.43l41.14,70.24.06.11a26.25,26.25,0,0,0,15.34,47.54A26.25,26.25,0,0,0,373,115.37Zm-87.22-69.2A21.07,21.07,0,0,1,278,41.09a0,0,0,0,1,0,0,19.47,19.47,0,0,1-1.64-1.89,21.24,21.24,0,1,1,9.46,7Zm98,101.19a21.25,21.25,0,0,1-39.86-14.76h0c.13-.35.27-.69.41-1s.27-.61.42-.91.28-.57.43-.84l.07-.12a.47.47,0,0,0,.05-.1l.4-.69c.34-.56.71-1.11,1.1-1.63.15-.2.3-.4.46-.59s.31-.39.48-.58c.33-.38.66-.75,1-1.1a6,6,0,0,1,.51-.5l.05,0c.17-.18.34-.33.52-.49l.58-.47a5.39,5.39,0,0,1,.6-.47,4.29,4.29,0,0,1,.5-.37l.51-.36.53-.34c.17-.12.35-.22.53-.33h0l.15-.09c.56-.32,1.13-.61,1.72-.88a21.25,21.25,0,0,1,28.8,26.69Z"/><path d="M0,136.8H11q4.17,0,6.26,2.17a7.69,7.69,0,0,1,2.12,5.66,6.83,6.83,0,0,1-.84,3.45,5.42,5.42,0,0,1-1.28,1.48,9.21,9.21,0,0,1-2,1.34V151a5.72,5.72,0,0,1,3.5,2.5,8.38,8.38,0,0,1,1.11,4.23,8.13,8.13,0,0,1-2.29,6,7.43,7.43,0,0,1-5.57,2.3H0Zm4.28,3.93v8.39h6.19a4.34,4.34,0,0,0,3.46-1.27,4.07,4.07,0,0,0,1.12-2.94,4.28,4.28,0,0,0-1.12-3,4.73,4.73,0,0,0-3.46-1.18Zm0,12.31v8.79h6.61a4.47,4.47,0,0,0,3.5-1.34,4.81,4.81,0,0,0,0-6.15,4.56,4.56,0,0,0-3.5-1.3Z"/><path d="M24.49,136.8h4.28v18.84a6.09,6.09,0,0,0,1.67,4.55,5.45,5.45,0,0,0,4.09,1.64,5.61,5.61,0,0,0,4.14-1.64,6.2,6.2,0,0,0,1.63-4.55V136.8h4.28v19.3a9.77,9.77,0,0,1-10,10.13,9.83,9.83,0,0,1-7.09-2.82,9.52,9.52,0,0,1-3-7.29Z"/><path d="M50.83,136.8h4.28V166H50.83Z"/><path d="M61.4,136.8h4.28v25H79.46V166H61.4Z"/><path d="M84.21,136.8H94.1a9.44,9.44,0,0,1,8.61,4.93,9,9,0,0,1,1.3,3.44,62.3,62.3,0,0,1,.21,6.23,43.57,43.57,0,0,1-.33,6.56,7.84,7.84,0,0,1-.46,1.69,15.89,15.89,0,0,1-.8,1.5,10,10,0,0,1-3.45,3.4A9.57,9.57,0,0,1,93.8,166H84.21Zm4.28,25h5.12a5.74,5.74,0,0,0,5.24-2.55,4.94,4.94,0,0,0,.92-2.38c.11-1,.17-2.73.17-5.34s-.06-4.36-.17-5.46a5.24,5.24,0,0,0-1.11-2.67,5.62,5.62,0,0,0-5-2.46H88.49Z"/><path d="M119.86,136.8h4l12.81,20.75h.08V136.8h4.28V166H137l-12.78-20.75h-.08V166h-4.28Z"/><path d="M147.91,136.8H166V141H152.19v8.35H164v3.92H152.19v8.59H166V166H147.91Z"/><path d="M175.51,140.73h-7.74V136.8h19.78v3.93H179.8V166h-4.29Z"/><path d="M188.67,136.8h4.52l4.44,20.75h.07l5.49-20.75h3.1l5.47,20.75h.08l4.46-20.75h4.51L213.76,166h-3.59l-5.39-21.05h-.08L199.29,166h-3.57Z"/><path d="M224.36,151.4a51.18,51.18,0,0,1,.29-6.82,8.5,8.5,0,0,1,.95-2.79,10,10,0,0,1,3.3-3.59,9.55,9.55,0,0,1,5.56-1.64,9.75,9.75,0,0,1,8.84,5.25,6.79,6.79,0,0,1,1,2.78,60.14,60.14,0,0,1,.25,6.81,60.27,60.27,0,0,1-.25,6.77,6.87,6.87,0,0,1-1,2.82,9.38,9.38,0,0,1-3.22,3.56,9.82,9.82,0,0,1-5.62,1.68A10.18,10.18,0,0,1,225.6,161c-.2-.44-.39-.86-.56-1.26a8.84,8.84,0,0,1-.39-1.56A51.21,51.21,0,0,1,224.36,151.4Zm4.28,0a36.22,36.22,0,0,0,.31,5.84,4.87,4.87,0,0,0,1.11,2.46,5,5,0,0,0,1.79,1.47,4.9,4.9,0,0,0,2.6.66,5.17,5.17,0,0,0,2.66-.66,4.81,4.81,0,0,0,1.71-1.47,5.17,5.17,0,0,0,1.15-2.46,38.29,38.29,0,0,0,.29-5.84,39,39,0,0,0-.29-5.88,6.12,6.12,0,0,0-2.86-3.93,6,6,0,0,0-2.66-.62,5.64,5.64,0,0,0-2.6.62,5.41,5.41,0,0,0-1.79,1.5,4.89,4.89,0,0,0-1.11,2.43A36.92,36.92,0,0,0,228.64,151.4Z"/><path d="M250.33,136.8h11a8.54,8.54,0,0,1,5.77,1.93,7.84,7.84,0,0,1,2.8,6.22,8.11,8.11,0,0,1-5.46,8.09L271,166h-5.09l-5.85-12.47h-5.48V166h-4.28Zm4.28,12.8h6.49a4.5,4.5,0,0,0,4.8-4.66,3.93,3.93,0,0,0-1.42-3.31,4.81,4.81,0,0,0-3.15-.9h-6.72Z"/><path d="M275.33,136.8h4.28v15h.09l11.64-15h5.08l-9.06,11.52,10,17.67h-5.08l-7.71-14.27-5,5.38V166h-4.28Z"/><path d="M301.51,158.92a12.2,12.2,0,0,0,8,2.91c3.67-.05,5.54-1.41,5.59-4.07q0-3.25-3.68-3.92c-1.14-.16-2.39-.34-3.75-.55a9.09,9.09,0,0,1-5.54-2.78,7.88,7.88,0,0,1-2-5.41,8.13,8.13,0,0,1,2.46-6.17,9.42,9.42,0,0,1,6.76-2.37,15.54,15.54,0,0,1,9.16,3l-2.38,3.63a12.71,12.71,0,0,0-7-2.24,5.24,5.24,0,0,0-3.3,1,3.81,3.81,0,0,0-1.41,3.16,3.24,3.24,0,0,0,.95,2.29,5.42,5.42,0,0,0,3,1.44c.78.13,1.84.29,3.18.46a8.75,8.75,0,0,1,5.88,2.95,8.47,8.47,0,0,1,1.88,5.45q-.21,8.37-9.92,8.49a15.72,15.72,0,0,1-10.79-4Z"/><path d="M403.32,136.8h4l12.8,20.75h.08V136.8h4.28V166h-4.05l-12.79-20.75h-.07V166h-4.28Z"/><path d="M431.36,136.8h4.28v25h13.79V166H431.36Z"/><path d="M454.17,136.8h4.28V166h-4.28Z"/><path d="M464.74,136.8h4l12.8,20.75h.08V136.8h4.28V166h-4.05l-12.79-20.75H469V166h-4.28Z"/><path d="M492.78,136.8h18.07V141H497.06v8.35h11.77v3.92H497.06v8.59h13.79V166H492.78Z"/></g></svg>