<svg xmlns="http://www.w3.org/2000/svg" xmlns:xlink="http://www.w3.org/1999/xlink" viewBox="0 0 64.2 204.87"><defs><style>.cls-1{fill:url(#linear-gradient);}.cls-2{fill:url(#radial-gradient);}.cls-3{fill:#f9ed32;}.cls-4,.cls-5,.cls-6,.cls-7,.cls-8,.cls-9{opacity:0.47;}.cls-4{fill:url(#radial-gradient-2);}.cls-5{fill:url(#radial-gradient-3);}.cls-6{fill:url(#radial-gradient-4);}.cls-7{fill:url(#radial-gradient-5);}.cls-8{fill:url(#radial-gradient-6);}.cls-9{fill:url(#radial-gradient-7);}.cls-10{fill:url(#linear-gradient-2);}.cls-11{opacity:0.5;fill:url(#linear-gradient-3);}.cls-12{fill:url(#linear-gradient-4);}.cls-13{fill:url(#linear-gradient-5);}.cls-14,.cls-15,.cls-16,.cls-17{fill:none;stroke-width:2px;}.cls-14{stroke:#ed2124;}.cls-14,.cls-15,.cls-16,.cls-17,.cls-18{stroke-miterlimit:10;}.cls-15{stroke:#4dace1;}.cls-16{stroke:#109146;}.cls-17{stroke:#451449;}.cls-18{fill:#a4dce7;stroke:#585a59;opacity:0.3;}</style><linearGradient id="linear-gradient" x1="12.95" y1="143.31" x2="50.68" y2="143.31" gradientUnits="userSpaceOnUse"><stop offset="0" stop-color="#737577"/><stop offset="0" stop-color="#6f7173"/><stop offset="0" stop-color="#656668"/><stop offset="0" stop-color="#525455"/><stop offset="0" stop-color="#4a4b4c"/><stop offset="0" stop-color="#4e4f50"/><stop offset="0" stop-color="#595b5c"/><stop offset="0" stop-color="#6d6e70"/><stop offset="0" stop-color="#888a8b"/><stop offset="0" stop-color="#abadaf"/><stop offset="0" stop-color="#babcbe"/><stop offset="0.21" stop-color="#b6b8ba"/><stop offset="0.45" stop-color="#a9aaad"/><stop offset="0.69" stop-color="#939597"/><stop offset="0.94" stop-color="#757679"/><stop offset="1" stop-color="#6d6e71"/></linearGradient><radialGradient id="radial-gradient" cx="-14.08" cy="178.82" r="94.12" gradientTransform="translate(0 20.65) scale(1 0.87)" gradientUnits="userSpaceOnUse"><stop offset="0" stop-color="#a7a9ac"/><stop offset="0" stop-color="#4a4b4c"/><stop offset="1" stop-color="#5a5b5d"/></radialGradient><radialGradient id="radial-gradient-2" cx="21.32" cy="135.82" r="5.36" gradientTransform="matrix(1, 0, 0, 1, 0, 0)" xlink:href="#radial-gradient"/><radialGradient id="radial-gradient-3" cx="21.66" cy="144.16" r="4.6" gradientTransform="matrix(1, 0, 0, 1, 0, 0)" xlink:href="#radial-gradient"/><radialGradient id="radial-gradient-4" cx="22.32" cy="152.14" r="4.31" gradientTransform="matrix(1, 0, 0, 1, 0, 0)" xlink:href="#radial-gradient"/><radialGradient id="radial-gradient-5" cx="42.45" cy="135.82" r="5.04" gradientTransform="matrix(1, 0, 0, 1, 0, 0)" xlink:href="#radial-gradient"/><radialGradient id="radial-gradient-6" cx="41.5" cy="144.16" r="4.41" gradientTransform="matrix(1, 0, 0, 1, 0, 0)" xlink:href="#radial-gradient"/><radialGradient id="radial-gradient-7" cx="40.64" cy="152.14" r="4.02" gradientTransform="matrix(1, 0, 0, 1, 0, 0)" xlink:href="#radial-gradient"/><linearGradient id="linear-gradient-2" x1="-30.69" y1="72.62" x2="62.79" y2="92.33" xlink:href="#linear-gradient"/><linearGradient id="linear-gradient-3" x1="32.79" y1="122.4" x2="31.38" y2="21.6" xlink:href="#linear-gradient"/><linearGradient id="linear-gradient-4" x1="124.22" y1="79.52" x2="-288.9" y2="106.65" xlink:href="#linear-gradient"/><linearGradient id="linear-gradient-5" x1="-60.97" y1="59.45" x2="88.89" y2="95.37" xlink:href="#linear-gradient"/></defs><title>Refined</title><g id="Layer_47" data-name="Layer 47"><path class="cls-1" d="M13,126.7l5.5,30.89a2.84,2.84,0,0,0,2.79,2.34H40.82a2.83,2.83,0,0,0,2.76-2.21l7.1-31"/><rect class="cls-2" x="24.5" y="159.93" width="14.64" height="44.94"/><rect class="cls-3" x="49.15" width="5.63" height="16.89"/><path class="cls-4" d="M14.14,133.4H27.08a1.41,1.41,0,0,1,1.42,1.41v2a1.42,1.42,0,0,1-1.42,1.42H15Z"/><path class="cls-5" d="M15.63,141.73H26.27a1.42,1.42,0,0,1,1.42,1.41v2a1.43,1.43,0,0,1-1.42,1.42H16.49Z"/><path class="cls-6" d="M17,149.23h9.31a1.43,1.43,0,0,1,1.42,1.42v3a1.43,1.43,0,0,1-1.42,1.42H18Z"/><path class="cls-7" d="M49.15,133.4h-12a1.41,1.41,0,0,0-1.42,1.41v2a1.42,1.42,0,0,0,1.42,1.42H48Z"/><path class="cls-8" d="M47.24,141.73H37.18a1.41,1.41,0,0,0-1.42,1.41v2a1.42,1.42,0,0,0,1.42,1.42h9Z"/><path class="cls-9" d="M45.53,149.23H37.18a1.42,1.42,0,0,0-1.42,1.42v3a1.42,1.42,0,0,0,1.42,1.42h7"/><polygon class="cls-10" points="12.95 47.3 10.7 105.02 19.43 126.84 44.91 126.7 56.31 104.18 56.31 47.3 12.95 47.3"/><rect class="cls-11" x="19.43" y="95.54" width="26.1" height="8.63"/><path class="cls-12" d="M13,47.3v55.92l6.48,23.55L13,126.7,1,103.49A8.58,8.58,0,0,1,0,99.58V47.3Z"/><path class="cls-13" d="M13,47.3H51.67l.84,58-8.73,21.4h6.9l11.15-22.6a8.62,8.62,0,0,0,.87-3.52L64.2,47.3"/><line class="cls-14" x1="12.95" y1="16.89" x2="12.95" y2="47.3"/><line class="cls-15" x1="22.24" y1="16.89" x2="22.24" y2="47.3"/><line class="cls-16" x1="31.04" y1="16.89" x2="31.04" y2="47.3"/><line class="cls-14" x1="40.61" y1="16.89" x2="40.61" y2="47.3"/><line class="cls-17" x1="51.15" y1="16.89" x2="51.15" y2="47.3"/><rect class="cls-3" x="9.71" width="5.91" height="16.89"/><rect class="cls-3" x="19.43" width="5.63" height="16.89"/><rect class="cls-3" x="28.09" width="5.91" height="16.89"/><rect class="cls-3" x="37.8" width="5.63" height="16.89"/><path class="cls-18" d="M4,0h56.3a.85.85,0,0,1,.85.85V47.3H3.1V.85A.85.85,0,0,1,4,0Z"/></g></svg>