<svg xmlns="http://www.w3.org/2000/svg" xmlns:xlink="http://www.w3.org/1999/xlink" viewBox="0 0 66.5 206.57"><defs><style>.cls-1{fill:url(#linear-gradient);}.cls-2{fill:url(#linear-gradient-2);}.cls-3{fill:url(#linear-gradient-3);}.cls-4{opacity:0.5;fill:url(#linear-gradient-4);}.cls-5{fill:none;stroke:#1e1d1d;stroke-miterlimit:10;opacity:0.3;}.cls-6{fill:url(#linear-gradient-5);}.cls-7{fill:url(#radial-gradient);}.cls-8{fill:#fff;}.cls-9{fill:url(#radial-gradient-2);}</style><linearGradient id="linear-gradient" x1="33.54" y1="168.91" x2="32.98" y2="7.29" gradientUnits="userSpaceOnUse"><stop offset="0" stop-color="#737577"/><stop offset="0" stop-color="#6f7173"/><stop offset="0" stop-color="#656668"/><stop offset="0" stop-color="#525455"/><stop offset="0" stop-color="#4a4b4c"/><stop offset="0" stop-color="#4e4f50"/><stop offset="0" stop-color="#595b5c"/><stop offset="0" stop-color="#6d6e70"/><stop offset="0" stop-color="#888a8b"/><stop offset="0" stop-color="#abadaf"/><stop offset="0" stop-color="#babcbe"/><stop offset="0.21" stop-color="#b6b8ba"/><stop offset="0.45" stop-color="#a9aaad"/><stop offset="0.69" stop-color="#939597"/><stop offset="0.94" stop-color="#757679"/><stop offset="1" stop-color="#6d6e71"/></linearGradient><linearGradient id="linear-gradient-2" x1="33.01" y1="69.6" x2="33.34" y2="11.78" xlink:href="#linear-gradient"/><linearGradient id="linear-gradient-3" x1="33.18" y1="73.9" x2="34.49" y2="33.46" xlink:href="#linear-gradient"/><linearGradient id="linear-gradient-4" x1="83.57" y1="33.98" x2="24.44" y2="54.53" xlink:href="#linear-gradient"/><linearGradient id="linear-gradient-5" x1="37.25" y1="339.83" x2="32.34" y2="-29.76" xlink:href="#linear-gradient"/><radialGradient id="radial-gradient" cx="33.19" cy="6.29" r="6.24" gradientTransform="translate(0 3.47) scale(1 1.91)" gradientUnits="userSpaceOnUse"><stop offset="0" stop-color="#a7a9ac"/><stop offset="0" stop-color="#4a4b4c"/><stop offset="1" stop-color="#5a5b5d"/></radialGradient><radialGradient id="radial-gradient-2" cx="-11.1" cy="174.19" r="94.12" gradientTransform="matrix(1, 0, 0, 1, 0, 0)" xlink:href="#radial-gradient"/></defs><title>ufuckingcunt</title><g id="Layer_49" data-name="Layer 49"><path class="cls-1" d="M-.13,65.94H66.5v38.38a2.84,2.84,0,0,1-.71,1.89l-17.1,19.24-28.26.39L.83,106.23a2.83,2.83,0,0,1-.83-2Z"/></g><g id="Layer_45" data-name="Layer 45"><path class="cls-2" d="M1.11,31.07H65.27a1.24,1.24,0,0,1,1.23,1.25v12a1.24,1.24,0,0,1-1.23,1.25H1.11A1.25,1.25,0,0,1-.13,44.3v-12A1.25,1.25,0,0,1,1.11,31.07Z"/><rect class="cls-3" x="8.77" y="45.55" width="50" height="20.39"/><rect class="cls-4" x="14.86" y="51.46" width="5.57" height="10.85"/><line class="cls-5" x1="-0.13" y1="72.18" x2="66.5" y2="72.18"/><line class="cls-5" x1="-0.13" y1="78.43" x2="66.5" y2="78.43"/><line class="cls-5" x1="-0.04" y1="86" x2="66.5" y2="86"/><line class="cls-5" x1="-0.08" y1="91.59" x2="66.5" y2="91.59"/><line class="cls-5" x1="66.5" y1="97.84" x2="-0.08" y2="97.84"/><line class="cls-5" x1="66.5" y1="105.4" y2="105.4"/><line class="cls-5" x1="4.97" y1="112.02" x2="63.11" y2="112.02"/><line class="cls-5" x1="10.67" y1="118.27" x2="57.55" y2="118.27"/><path class="cls-6" d="M20.43,125.84v24a5.67,5.67,0,0,0,5.86,5.67l16.92-.55a5.67,5.67,0,0,0,5.48-5.67V125.45Z"/><rect class="cls-7" x="29.72" width="6.94" height="31"/><polygon class="cls-8" points="48.69 125.45 66.5 105.4 75.15 105.4 61.21 125.84 48.69 125.45"/><polygon class="cls-8" points="-1.58 103.5 20.43 125.84 10.67 130.11 -1.58 103.5"/></g><g id="Layer_47" data-name="Layer 47"><rect class="cls-9" x="27.47" y="155.05" width="14.64" height="51.53"/></g></svg>