<svg xmlns="http://www.w3.org/2000/svg" xmlns:xlink="http://www.w3.org/1999/xlink" viewBox="0 0 310.37 244.61"><defs><style>.cls-1{fill:url(#linear-gradient);}.cls-2{fill:url(#linear-gradient-2);}.cls-3{fill:url(#radial-gradient);}.cls-4{fill:url(#linear-gradient-3);}.cls-5{fill:#a4dce7;}.cls-6{fill:url(#linear-gradient-4);}.cls-7{fill:url(#linear-gradient-5);}.cls-8{fill:url(#radial-gradient-2);}.cls-9{fill:url(#radial-gradient-8);}.cls-10{fill:url(#linear-gradient-6);}</style><linearGradient id="linear-gradient" x1="169.34" y1="374.35" x2="144.17" y2="124.8" gradientUnits="userSpaceOnUse"><stop offset="0" stop-color="#737577"/><stop offset="0" stop-color="#6f7173"/><stop offset="0" stop-color="#656668"/><stop offset="0" stop-color="#525455"/><stop offset="0" stop-color="#4a4b4c"/><stop offset="0" stop-color="#4e4f50"/><stop offset="0" stop-color="#595b5c"/><stop offset="0" stop-color="#6d6e70"/><stop offset="0" stop-color="#888a8b"/><stop offset="0" stop-color="#abadaf"/><stop offset="0" stop-color="#babcbe"/><stop offset="0.21" stop-color="#b6b8ba"/><stop offset="0.45" stop-color="#a9aaad"/><stop offset="0.69" stop-color="#939597"/><stop offset="0.94" stop-color="#757679"/><stop offset="1" stop-color="#6d6e71"/></linearGradient><linearGradient id="linear-gradient-2" x1="-132.18" y1="205.51" x2="775.85" y2="138.41" xlink:href="#linear-gradient"/><radialGradient id="radial-gradient" cx="248.15" cy="344.92" r="276.02" gradientUnits="userSpaceOnUse"><stop offset="0" stop-color="#a7a9ac"/><stop offset="0" stop-color="#4a4b4c"/><stop offset="1" stop-color="#5a5b5d"/></radialGradient><linearGradient id="linear-gradient-3" x1="175.7" y1="-151.86" x2="140.05" y2="247.63" xlink:href="#linear-gradient"/><linearGradient id="linear-gradient-4" x1="200.95" y1="265.57" x2="139.09" y2="-100.02" xlink:href="#linear-gradient"/><linearGradient id="linear-gradient-5" x1="157.19" y1="451.5" x2="155.79" y2="299.81" gradientUnits="userSpaceOnUse"><stop offset="0" stop-color="#b0b0b0"/><stop offset="0.3" stop-color="#acacad"/><stop offset="0.58" stop-color="#a1a1a2"/><stop offset="0.85" stop-color="#8e8f91"/><stop offset="1" stop-color="#808285"/></linearGradient><radialGradient id="radial-gradient-2" cx="320.85" cy="361" r="370.13" xlink:href="#radial-gradient"/><radialGradient id="radial-gradient-8" cx="320.85" cy="361" r="370.13" xlink:href="#radial-gradient"/><linearGradient id="linear-gradient-6" x1="-87.87" y1="-96.96" x2="270.73" y2="395.15" xlink:href="#linear-gradient"/></defs><title>Refined</title><g id="Layer_33" data-name="Layer 33"><path class="cls-1" d="M31.5,162.82H278.22a8.51,8.51,0,0,1,8,5.57L310.37,234H0l23.49-65.55A8.52,8.52,0,0,1,31.5,162.82Z"/><path class="cls-2" d="M46.09,165.27h217a5.68,5.68,0,0,1,5.33,3.73l9.49,26.06a5.67,5.67,0,0,1-5.33,7.61H37.81a5.66,5.66,0,0,1-5.4-7.39l8.28-26.06A5.66,5.66,0,0,1,46.09,165.27Z"/><path class="cls-3" d="M125.64,207.21h58a5.66,5.66,0,0,1,5.59,4.72l1.91,11.17a5.67,5.67,0,0,1-5.59,6.62H123.56A5.67,5.67,0,0,1,118,223l2.08-11.17A5.67,5.67,0,0,1,125.64,207.21Z"/></g><g id="Layer_36" data-name="Layer 36"><rect class="cls-4" x="25.51" y="2.1" width="258.64" height="159.73" rx="8.5"/><path class="cls-5" d="M40.39,10.49H267.76a7.82,7.82,0,0,1,8,7.62V146.16a7.83,7.83,0,0,1-8,7.63H40.39a7.82,7.82,0,0,1-8-7.63v-128A7.81,7.81,0,0,1,40.39,10.49Z"/><path class="cls-6" d="M32.39,2.26l7.82-2A8.75,8.75,0,0,1,42.31,0H271.54a8.63,8.63,0,0,1,4,1l5.1,2.73"/><path class="cls-7" d="M0,234l2.9,5.87a8.51,8.51,0,0,0,7.62,4.73H298.57a8.5,8.5,0,0,0,7-3.66l4.81-6.94"/><path class="cls-8" d="M153.66,197.7H82.81c-.89,0-1.78,0-2.67,0-2.35-.08-3-.46-3.07-1.72a3.43,3.43,0,0,1,2.9-3.84,18.24,18.24,0,0,1,2.34,0h128c5.35,0,10.7-.06,16,0,2.64,0,3.38.81,3.82,3.23.26,1.43-.3,2.16-1.65,2.31a27.26,27.26,0,0,1-3,.08H153.66Z"/><path class="cls-8" d="M145.61,168.8c1.66,0,3.33-.1,5,0s2.22.93,2.2,2.69-.6,2.7-2.19,2.76c-3.43.12-6.87.09-10.3,0-1.49,0-2-1.06-2-2.5,0-1.88.47-2.75,2-2.9,1.76-.17,3.54,0,5.32,0Z"/><path class="cls-8" d="M161.89,174.34c-1.66,0-3.33.1-5,0s-2.42-1-2.39-2.92.59-2.51,2.34-2.57c3.21-.11,6.42-.12,9.63,0,1.95.07,2.48.8,2.52,2.76s-.45,2.6-2.47,2.74c-1.54.11-3.1,0-4.65,0Z"/><path class="cls-8" d="M198.6,174.35c-1.33,0-2.66.06-4,0-2.39-.13-3.19-1-3.38-3.21-.12-1.35.41-2.24,1.76-2.27,3.43-.07,6.88-.15,10.3,0a3.1,3.1,0,0,1,2.25,4.52,2.89,2.89,0,0,1-1.95.9C201.93,174.43,200.26,174.35,198.6,174.35Z"/><path class="cls-8" d="M235.71,174.34c-1.56,0-3.12.09-4.67,0a3.45,3.45,0,0,1-3.12-4.22,2,2,0,0,1,1.32-1.2c3.55-.1,7.12-.17,10.67,0,1.8.08,3.24,2.59,2.57,4.28a2.43,2.43,0,0,1-1.77,1.11C239.05,174.44,237.37,174.34,235.71,174.34Z"/><path class="cls-8" d="M253.59,174.33c-1.56,0-3.12.1-4.66,0a3.69,3.69,0,0,1-3.45-4.07,2.13,2.13,0,0,1,1.53-1.33,49.6,49.6,0,0,1,5.32-.15c1.55,0,3.11,0,4.66.05a3,3,0,0,1,2.89,1.86c1.22,2.69.69,3.61-2.3,3.69-1.33,0-2.66,0-4,0Z"/><path class="cls-9" d="M260.21,192.11c1.55,0,3.11-.09,4.66,0a3.74,3.74,0,0,1,3.47,4.07,2,2,0,0,1-1.22,1.3,6.75,6.75,0,0,1-2.3.19c-2.67,0-5.34.08-8-.06a3.61,3.61,0,0,1-3.43-4.07,2.11,2.11,0,0,1,1.49-1.36,52.38,52.38,0,0,1,5.32-.07Z"/><path class="cls-8" d="M47.28,192.12c1.66,0,3.33-.1,5,0s1.88.72,1.56,2.23c-.53,2.42-1.35,3.2-3.86,3.29s-5.32.07-8,0c-1.14,0-2.64.34-3-1.32a4,4,0,0,1,2.66-4.12,14.63,14.63,0,0,1,2.65-.15c1,0,2,0,3,0Z"/><path class="cls-8" d="M53.57,174.33c-1.67,0-3.34.09-5,0s-1.91-.71-1.6-2.2c.51-2.41,1.36-3.23,3.83-3.31,2.66-.09,5.33-.07,8,0,1.14,0,2.65-.36,3,1.28a3.87,3.87,0,0,1-3,4.2,31.65,31.65,0,0,1-3.65.11H53.57Z"/><path class="cls-8" d="M71.5,174.36c-1.33,0-2.67,0-4,0s-2.6.21-2.78-1.58a3.55,3.55,0,0,1,2.45-3.87,7.6,7.6,0,0,1,1.66-.13c2.55,0,5.11,0,7.67,0s2.93.36,3,1.73a3.53,3.53,0,0,1-3,3.82,4.93,4.93,0,0,1-.67,0H71.5Z"/><path class="cls-8" d="M108.19,174.36c-1.44,0-2.88,0-4.32,0-1.18,0-2.22-.22-2.37-1.72-.17-1.71.45-3.17,1.72-3.59a6.48,6.48,0,0,1,2-.26c2.66,0,5.32-.06,8,0,2.25.05,2.86.49,2.93,1.86.1,2.15-.91,3.44-2.91,3.69a5,5,0,0,1-.67,0Z"/><path class="cls-8" d="M241.46,192.11c1.55,0,3.1-.09,4.64,0a3.41,3.41,0,0,1,3.33,4,2.11,2.11,0,0,1-1.48,1.39c-3.53.12-7.07.16-10.59,0-1.7-.09-3.26-2.73-2.63-4.25a2.44,2.44,0,0,1,1.76-1.12C238.14,192,239.8,192.11,241.46,192.11Z"/><path class="cls-8" d="M66.07,192.1c1.55,0,3.1-.09,4.64,0,1.84.14,2.26.84,1.8,2.66-.52,2.09-1.22,2.78-3.44,2.87-2.76.11-5.53.07-8.29,0-1.16,0-2.62.29-2.93-1.41s.93-3.85,2.6-4a50.14,50.14,0,0,1,5.62-.05Z"/><path class="cls-8" d="M91.06,168.77c1.34,0,2.67,0,4,0,1.09,0,2.35-.13,2.65,1.38a3.76,3.76,0,0,1-1.9,3.91,6.52,6.52,0,0,1-2,.28c-2.67,0-5.34,0-8,0-1.19,0-2.63.21-2.87-1.52a3.45,3.45,0,0,1,2.76-3.94,52.6,52.6,0,0,1,5.33,0Z"/><path class="cls-8" d="M127,174.35c-1.55,0-3.1,0-4.65,0-1.32,0-2.42-.37-2.53-2-.13-1.88.7-3.21,2.27-3.5a10.86,10.86,0,0,1,2-.11c2.65,0,5.31,0,8,0,1.39,0,2.31.56,2.32,2.16,0,1.93-.54,3.11-2.06,3.27a49.09,49.09,0,0,1-5.29.05Z"/><path class="cls-8" d="M180.42,174.33c-1.66,0-3.32.11-5,0-1.82-.16-2.5-1.19-2.45-3.26.05-1.67.51-2.18,2.56-2.24,3-.09,6-.1,8.95,0a3,3,0,0,1,3,3.81,2,2,0,0,1-2.12,1.7C183.74,174.35,182.08,174.33,180.42,174.33Z"/><path class="cls-8" d="M217.66,174.33c-1.67,0-3.34.1-5,0a3.34,3.34,0,0,1-3-4.26,1.91,1.91,0,0,1,1.39-1.14c3.56-.09,7.12-.15,10.67,0,1.65.08,3.23,3,2.49,4.35-.28.54-1.22.75-1.88,1.06a1.6,1.6,0,0,1-.66,0h-4Z"/><path class="cls-8" d="M145.14,176.62c1.66,0,3.32-.09,5,0s2.18.76,2.17,2.63-.47,2.61-2.16,2.66c-3.42.11-6.85.06-10.27,0-1.55,0-2.06-1-2.06-2.41,0-1.77.57-2.73,2.06-2.86,1.75-.14,3.53,0,5.29,0Z"/><path class="cls-8" d="M162.26,182c-1.55,0-3.1.06-4.64,0-2.06-.1-2.54-.63-2.59-2.6s.46-2.69,2.4-2.74q4.8-.13,9.6,0c1.82.06,2.47.92,2.48,2.8s-.56,2.44-2.62,2.53C165.35,182,163.8,182,162.26,182Z"/><path class="cls-8" d="M238.05,182c-1.45,0-2.89,0-4.34,0-2.41-.09-3.34-1-3.63-3.42-.13-1.1.31-1.85,1.36-1.87,3.66-.06,7.34-.12,11,0,1.5.06,3,2.71,2.42,4.15a2,2,0,0,1-1.48,1c-1.77.13-3.55.05-5.33.05Z"/><path class="cls-8" d="M256.16,182c-1.55,0-3.1.07-4.64,0a3.6,3.6,0,0,1-3.39-4,1.82,1.82,0,0,1,1.23-1.24c3.65-.1,7.3-.15,10.94,0,1.57.06,3.27,2.88,2.7,4.29a2.09,2.09,0,0,1-1.53.93c-1.76.11-3.54,0-5.31,0Z"/><path class="cls-8" d="M86.88,184.48c1.78,0,3.56,0,5.33,0,1.22,0,1.75.69,1.58,2-.33,2.43-1.17,3.31-3.66,3.36-2.77.07-5.55,0-8.32,0-1.2,0-2.63.19-2.79-1.58a3.3,3.3,0,0,1,2.86-3.79,5,5,0,0,1,.67,0c1.44,0,2.89,0,4.33,0Z"/><path class="cls-8" d="M106.19,184.46c1.55,0,3.1,0,4.65,0,1,0,2.06,0,2.35,1.32.32,1.48-.6,3.57-1.8,3.91a7.57,7.57,0,0,1-2,.17h-8.31c-1.29,0-2.48-.11-2.51-1.86,0-2.08.66-3.32,2.28-3.46s3.54,0,5.31,0Z"/><path class="cls-8" d="M125.15,184.46c1.55,0,3.09,0,4.64,0,1.32,0,2.41.27,2.47,2,.07,2-.64,3.28-2.34,3.36-3.3.14-6.62.12-9.92.05-1.81,0-2.27-.59-2.3-2.13,0-1.85.66-3,2.16-3.16,1.75-.14,3.52,0,5.29,0Z"/><path class="cls-8" d="M182.63,189.84c-1.68,0-3.35.11-5,0a3,3,0,0,1-2.27-4.47,2.35,2.35,0,0,1,1.69-.82c3.34-.08,6.68-.12,10,0,1.82.05,2.58,1.15,2.55,3.18,0,1.64-.51,2.08-2.64,2.17-1.45.06-2.9,0-4.34,0Z"/><path class="cls-8" d="M201.75,189.84c-1.66,0-3.32.1-5,0-1.93-.14-3.4-2.79-2.46-4.43a2.2,2.2,0,0,1,1.62-.86c3.43-.08,6.86-.13,10.29,0,1.86.07,3.27,3,2.21,4.52a2.55,2.55,0,0,1-1.7.77c-1.65.1-3.32,0-5,0Z"/><path class="cls-8" d="M220.27,184.46c1.55,0,3.11-.06,4.66,0a3.25,3.25,0,0,1,3.29,4,2.15,2.15,0,0,1-1.56,1.33c-3.55.11-7.11.15-10.65,0-1.69-.08-3.16-3-2.36-4.37a2.48,2.48,0,0,1,1.62-.86,16.86,16.86,0,0,1,2.66-.06h2.34Z"/><path class="cls-8" d="M69.13,182c-1.44,0-2.89,0-4.34,0-2.46-.1-2.8-.57-2.13-2.82.6-2,1.14-2.49,3.33-2.54,2.89-.07,5.78,0,8.68,0,1.09,0,2.37-.16,2.58,1.41a3.72,3.72,0,0,1-2.45,3.89,2.9,2.9,0,0,1-.66.06h-5Z"/><path class="cls-8" d="M51.06,182c-1.77,0-3.54,0-5.3,0-1.26,0-1.73-.69-1.44-2,.56-2.54,1.41-3.31,4.09-3.36s5.31-.05,8,0c1.14,0,2.65-.39,2.85,1.42A3.79,3.79,0,0,1,56.37,182a4.86,4.86,0,0,1-.66,0H51.06Z"/><path class="cls-8" d="M219.17,182c-1.55,0-3.11.08-4.66,0a3.38,3.38,0,0,1-2.92-4.26,2,2,0,0,1,1.5-1c3.55-.07,7.11-.12,10.66,0,1.65.08,3.15,3,2.36,4.36a2.25,2.25,0,0,1-1.61.87c-1.77.11-3.55,0-5.33,0Z"/><path class="cls-8" d="M181.49,182c-1.56,0-3.12.07-4.67,0-2-.11-2.85-1.09-2.84-3.28,0-1.5.63-2,2.71-2.07,2.89-.06,5.78-.07,8.68,0,2.44,0,3.13.88,3.1,3.26,0,1.38-.6,2.08-2,2.09Z"/><path class="cls-8" d="M125.83,182c-1.56,0-3.12.06-4.67,0-1.92-.09-2.25-.44-2.31-2.08-.07-2,.52-3,2.09-3.23a15.05,15.05,0,0,1,2.33-.06c2.56,0,5.12,0,7.67,0,1.79,0,2.37.64,2.39,2.06,0,1.88-.7,3.11-2.16,3.22-1.77.15-3.56,0-5.34,0Z"/><path class="cls-8" d="M88,182c-1.78,0-3.55,0-5.32,0-1.22-.05-1.74-.72-1.57-2,.34-2.46,1.13-3.28,3.66-3.34,2.77-.06,5.55,0,8.32,0,1.19,0,2.6-.2,2.73,1.61.16,2.13-.92,3.61-2.83,3.74-1.66.11-3.33,0-5,0Z"/><path class="cls-8" d="M200.12,182c-1.34,0-2.67,0-4,0-2.47-.09-3.14-.75-3.43-3.1-.17-1.39.37-2.22,1.75-2.25,3.45,0,6.9-.11,10.34,0,1.89.09,3.12,2.54,2.25,4.3a2.17,2.17,0,0,1-1.56.94c-1.78.12-3.56,0-5.34,0Z"/><path class="cls-8" d="M48.28,189.84c-1.66,0-3.32.08-5,0s-1.89-.67-1.56-2.16c.54-2.42,1.34-3.13,3.85-3.18s5.31-.07,7.95,0c1.11,0,2.66-.53,3,1.19a3.84,3.84,0,0,1-3,4.14c-1.2.13-2.43,0-3.64.06H48.28Z"/><path class="cls-8" d="M66.68,189.81c-1.66,0-3.32.05-5,0-1.26-.05-1.69-.83-1.55-2,.27-2.32,1.24-3.25,3.7-3.3,2.76-.06,5.53-.05,8.29,0,1.14,0,2.62-.35,2.71,1.55a3.4,3.4,0,0,1-2.54,3.76,21.07,21.07,0,0,1-3,.08H66.68Z"/><path class="cls-8" d="M239.24,184.46c1.44,0,2.88-.05,4.31,0,2.4.09,3.41,1.08,3.61,3.39.12,1.24-.41,1.94-1.64,1.95-3.43,0-6.86.11-10.29,0-1.81-.07-3.29-2.41-2.7-4.17a2.36,2.36,0,0,1,1.74-1.1c1.64-.15,3.31-.05,5-.05Z"/><path class="cls-8" d="M257.42,184.48c1.65,0,3.32-.09,5,0a3.66,3.66,0,0,1,3.27,4.13,1.88,1.88,0,0,1-1.35,1.13c-3.53.09-7.07.15-10.6,0-1.7-.07-3.31-2.41-3-4.13a1.84,1.84,0,0,1,1.36-1.09c1.76-.14,3.53-.06,5.3-.06Z"/><path class="cls-8" d="M107,182h-4.34c-1.27,0-2.5,0-2.58-1.81-.09-2.14.72-3.37,2.62-3.53,1.43-.13,2.89-.05,4.34-.05h5c1.28,0,2.56,0,2.62,1.8.08,2.06-.87,3.42-2.65,3.54s-3.34,0-5,0Z"/><path class="cls-8" d="M144.44,189.82c-1.66,0-3.32.05-5,0s-2-1.12-2-2.51c0-1.93.44-2.72,2-2.78,3.43-.11,6.86-.06,10.29,0,1.62,0,2,1.11,1.95,2.49,0,1.92-.45,2.69-2,2.82-1.76.14-3.54,0-5.3,0Z"/><path class="cls-8" d="M162.65,184.48c1.66,0,3.33-.09,5,0s2.15.74,2.17,2.65-.42,2.59-2.15,2.65c-3.31.1-6.63.11-10,0-1.73-.06-2.21-1-2.17-3,0-1.47.6-2.31,2.14-2.31h5Z"/><path class="cls-10" d="M117.89,234v2.47a2.83,2.83,0,0,0,2.83,2.83h67.64a2.85,2.85,0,0,0,2.84-2.85l0-2.45"/></g></svg>