<svg xmlns="http://www.w3.org/2000/svg" xmlns:xlink="http://www.w3.org/1999/xlink" viewBox="0 0 286.14 252.52"><defs><style>.cls-1{fill:url(#linear-gradient);}.cls-2{fill:url(#linear-gradient-2);}.cls-3{fill:url(#radial-gradient);}.cls-4{fill:url(#radial-gradient-2);}.cls-5{fill:url(#radial-gradient-3);}.cls-6{fill:url(#radial-gradient-4);}.cls-7{fill:#eceae9;}.cls-8{fill:#e4dedd;}.cls-9{fill:url(#radial-gradient-5);}.cls-10{fill:url(#radial-gradient-6);}.cls-11{fill:url(#radial-gradient-7);}.cls-12{fill:url(#radial-gradient-8);}</style><linearGradient id="linear-gradient" x1="133.23" y1="304.85" x2="146.75" y2="68.58" gradientUnits="userSpaceOnUse"><stop offset="0" stop-color="#737577"/><stop offset="0" stop-color="#6f7173"/><stop offset="0" stop-color="#656668"/><stop offset="0" stop-color="#525455"/><stop offset="0" stop-color="#4a4b4c"/><stop offset="0" stop-color="#4e4f50"/><stop offset="0" stop-color="#595b5c"/><stop offset="0" stop-color="#6d6e70"/><stop offset="0" stop-color="#888a8b"/><stop offset="0" stop-color="#abadaf"/><stop offset="0" stop-color="#babcbe"/><stop offset="0.21" stop-color="#b6b8ba"/><stop offset="0.45" stop-color="#a9aaad"/><stop offset="0.69" stop-color="#939597"/><stop offset="0.94" stop-color="#757679"/><stop offset="1" stop-color="#6d6e71"/></linearGradient><linearGradient id="linear-gradient-2" x1="159.87" y1="338.81" x2="113.74" y2="-143.52" xlink:href="#linear-gradient"/><radialGradient id="radial-gradient" cx="142.83" cy="169.51" r="64.41" gradientUnits="userSpaceOnUse"><stop offset="0" stop-color="#a7a9ac"/><stop offset="0" stop-color="#4a4b4c"/><stop offset="1" stop-color="#5a5b5d"/></radialGradient><radialGradient id="radial-gradient-2" cx="145.44" cy="411.38" r="411.91" xlink:href="#radial-gradient"/><radialGradient id="radial-gradient-3" cx="142.6" cy="214.83" r="64.39" xlink:href="#radial-gradient"/><radialGradient id="radial-gradient-4" cx="82.72" cy="280.66" r="198.05" xlink:href="#radial-gradient"/><radialGradient id="radial-gradient-5" cx="347.12" cy="126.06" r="2.94" gradientTransform="translate(-13.23 -113.2) rotate(26.97)" gradientUnits="userSpaceOnUse"><stop offset="0.17" stop-color="#a7a9ac"/><stop offset="0.23" stop-color="#a3a5a7"/><stop offset="1" stop-color="#6d6e71"/></radialGradient><radialGradient id="radial-gradient-6" cx="343.1" cy="118.14" r="2.94" xlink:href="#radial-gradient-5"/><radialGradient id="radial-gradient-7" cx="142.83" cy="53.94" r="50.58" xlink:href="#radial-gradient"/><radialGradient id="radial-gradient-8" cx="35.98" cy="34.71" r="258.81" xlink:href="#radial-gradient"/></defs><title>Refined</title><g id="Layer_36" data-name="Layer 36"><path class="cls-1" d="M30.31,73.75h224.6a11.32,11.32,0,0,1,10.53,7.15l20.7,52H0L19.71,81.06A11.34,11.34,0,0,1,30.31,73.75Z"/><g id="Layer_37" data-name="Layer 37"><path class="cls-2" d="M0,134.16v66.27a5.67,5.67,0,0,0,5.67,5.67h274a5.68,5.68,0,0,0,5.67-5.54l1.59-66.27a5.68,5.68,0,0,0-5.67-5.8H5.67A5.67,5.67,0,0,0,0,134.16Z"/></g><rect class="cls-3" x="59.42" y="132.93" width="166.83" height="73.16" rx="4.25"/><path class="cls-4" d="M70.6,206.1V184.93a2.84,2.84,0,0,1,2.84-2.83h139a2.83,2.83,0,0,1,2.83,2.83V206.1Z"/><polygon class="cls-5" points="76.89 195.61 208.54 195.61 231.61 234.06 53.59 234.06 76.89 195.61"/><g id="Layer_39" data-name="Layer 39"><polygon class="cls-6" points="53.59 234.06 53.59 241.05 231.61 241.98 231.61 234.06 53.59 234.06"/></g><path class="cls-7" d="M187.81,182.1H95.53S89,240.58,76.89,250.83H209.48S183.38,197,187.81,182.1Z"/><polyline class="cls-8" points="76.89 250.83 76.89 252.52 209.47 252.52 209.47 250.83"/></g><g id="Layer_40" data-name="Layer 40"><circle class="cls-9" cx="238.97" cy="156.58" r="2.94"/><circle class="cls-10" cx="238.97" cy="147.69" r="2.94"/></g><g id="Layer_41" data-name="Layer 41"><path class="cls-11" d="M74.1,73.75V37a2.83,2.83,0,0,1,2.83-2.83H208.74A2.83,2.83,0,0,1,211.57,37V73.75"/><path class="cls-12" d="M75.79,34.38l1.44-1A2.9,2.9,0,0,1,78.79,33H206.72a2.88,2.88,0,0,1,1.44.39l1.72,1"/><rect class="cls-7" x="100.19" y="1.45" width="86.68" height="72.3"/><polyline class="cls-8" points="100.19 1.45 102.52 0 183.96 0 186.87 1.45"/></g></svg>