<svg xmlns="http://www.w3.org/2000/svg" xmlns:xlink="http://www.w3.org/1999/xlink" viewBox="0 0 329 145.97"><defs><style>.cls-1{fill:url(#radial-gradient);}.cls-2{fill:url(#linear-gradient);}.cls-3{fill:#505556;}.cls-4{fill:#93979e;}.cls-5{fill:url(#radial-gradient-2);}.cls-6{fill:url(#radial-gradient-3);}.cls-7{fill:url(#radial-gradient-4);}.cls-8{fill:url(#radial-gradient-5);}.cls-9{fill:url(#radial-gradient-6);}.cls-10{fill:url(#radial-gradient-7);}.cls-11{fill:url(#radial-gradient-8);}.cls-12{fill:url(#radial-gradient-9);}.cls-13{fill:none;stroke:#93979e;stroke-miterlimit:10;}.cls-14{fill:url(#radial-gradient-10);}.cls-15{fill:url(#radial-gradient-11);}.cls-16{fill:url(#radial-gradient-12);}.cls-17{fill:url(#radial-gradient-13);}.cls-18{fill:url(#radial-gradient-14);}.cls-19{fill:url(#radial-gradient-15);}.cls-20{fill:url(#radial-gradient-16);}.cls-21{fill:url(#radial-gradient-17);}.cls-22{fill:url(#radial-gradient-18);}.cls-23{fill:url(#radial-gradient-19);}.cls-24{fill:url(#radial-gradient-20);}.cls-25{fill:url(#radial-gradient-21);}.cls-26{fill:url(#radial-gradient-22);}.cls-27{fill:url(#radial-gradient-23);}.cls-28{fill:url(#radial-gradient-24);}.cls-29{fill:url(#radial-gradient-25);}</style><radialGradient id="radial-gradient" cx="164.5" cy="69.45" r="118.57" gradientTransform="matrix(-0.5, -0.65, 3.46, -1.5, 6.15, 234.65)" gradientUnits="userSpaceOnUse"><stop offset="0" stop-color="#a7a9ac"/><stop offset="0" stop-color="#4a4b4c"/><stop offset="1" stop-color="#5a5b5d"/></radialGradient><linearGradient id="linear-gradient" x1="164.52" y1="48.85" x2="164.52" y2="145.97" gradientUnits="userSpaceOnUse"><stop offset="0" stop-color="#b0b0b0"/><stop offset="0.3" stop-color="#acacad"/><stop offset="0.58" stop-color="#a1a1a2"/><stop offset="0.85" stop-color="#8e8f91"/><stop offset="1" stop-color="#808285"/></linearGradient><radialGradient id="radial-gradient-2" cx="213.92" cy="91.3" r="6.1" gradientTransform="translate(0 -90.25) scale(1 1.93)" gradientUnits="userSpaceOnUse"><stop offset="0" stop-color="#181818"/><stop offset="0.29" stop-color="#1c1c1c"/><stop offset="0.56" stop-color="#272727"/><stop offset="0.83" stop-color="#39393a"/><stop offset="1" stop-color="#48484a"/></radialGradient><radialGradient id="radial-gradient-3" cx="230.42" cy="91.3" r="6.1" xlink:href="#radial-gradient-2"/><radialGradient id="radial-gradient-4" cx="180.25" cy="91.97" r="6.1" xlink:href="#radial-gradient-2"/><radialGradient id="radial-gradient-5" cx="196.92" cy="91.97" r="6.1" xlink:href="#radial-gradient-2"/><radialGradient id="radial-gradient-6" cx="42.79" cy="63.52" r="6.1" gradientTransform="translate(239.62 232.49) rotate(180) scale(1 1.93)" xlink:href="#radial-gradient-2"/><radialGradient id="radial-gradient-7" cx="59.29" cy="63.52" r="6.1" gradientTransform="translate(239.62 232.49) rotate(180) scale(1 1.93)" xlink:href="#radial-gradient-2"/><radialGradient id="radial-gradient-8" cx="9.12" cy="64.19" r="6.1" gradientTransform="translate(239.62 232.49) rotate(180) scale(1 1.93)" xlink:href="#radial-gradient-2"/><radialGradient id="radial-gradient-9" cx="25.79" cy="64.19" r="6.1" gradientTransform="translate(239.62 232.49) rotate(180) scale(1 1.93)" xlink:href="#radial-gradient-2"/><radialGradient id="radial-gradient-10" cx="290.08" cy="91.3" r="6.1" xlink:href="#radial-gradient-2"/><radialGradient id="radial-gradient-11" cx="306.58" cy="91.3" r="6.1" xlink:href="#radial-gradient-2"/><radialGradient id="radial-gradient-12" cx="256.42" cy="91.97" r="6.1" xlink:href="#radial-gradient-2"/><radialGradient id="radial-gradient-13" cx="273.08" cy="91.97" r="6.1" xlink:href="#radial-gradient-2"/><radialGradient id="radial-gradient-14" cx="-33.38" cy="63.52" r="6.1" gradientTransform="translate(239.62 232.49) rotate(180) scale(1 1.93)" xlink:href="#radial-gradient-2"/><radialGradient id="radial-gradient-15" cx="-16.88" cy="63.52" r="6.1" gradientTransform="translate(239.62 232.49) rotate(180) scale(1 1.93)" xlink:href="#radial-gradient-2"/><radialGradient id="radial-gradient-16" cx="-67.04" cy="64.19" r="6.1" gradientTransform="translate(239.62 232.49) rotate(180) scale(1 1.93)" xlink:href="#radial-gradient-2"/><radialGradient id="radial-gradient-17" cx="-50.38" cy="64.19" r="6.1" gradientTransform="translate(239.62 232.49) rotate(180) scale(1 1.93)" xlink:href="#radial-gradient-2"/><radialGradient id="radial-gradient-18" cx="137.79" cy="91.3" r="6.1" xlink:href="#radial-gradient-2"/><radialGradient id="radial-gradient-19" cx="154.29" cy="91.3" r="6.1" xlink:href="#radial-gradient-2"/><radialGradient id="radial-gradient-20" cx="104.13" cy="91.97" r="6.1" xlink:href="#radial-gradient-2"/><radialGradient id="radial-gradient-21" cx="120.79" cy="91.97" r="6.1" xlink:href="#radial-gradient-2"/><radialGradient id="radial-gradient-22" cx="118.92" cy="63.52" r="6.1" gradientTransform="translate(239.62 232.49) rotate(180) scale(1 1.93)" xlink:href="#radial-gradient-2"/><radialGradient id="radial-gradient-23" cx="135.42" cy="63.52" r="6.1" gradientTransform="translate(239.62 232.49) rotate(180) scale(1 1.93)" xlink:href="#radial-gradient-2"/><radialGradient id="radial-gradient-24" cx="85.25" cy="64.19" r="6.1" gradientTransform="translate(239.62 232.49) rotate(180) scale(1 1.93)" xlink:href="#radial-gradient-2"/><radialGradient id="radial-gradient-25" cx="101.92" cy="64.19" r="6.1" gradientTransform="translate(239.62 232.49) rotate(180) scale(1 1.93)" xlink:href="#radial-gradient-2"/></defs><title>Refined</title><g id="Layer_31" data-name="Layer 31"><path class="cls-1" d="M34.38,2.18,0,48.59H329L288.68,1.94A6.34,6.34,0,0,0,283.91,0H39.34A6.21,6.21,0,0,0,34.38,2.18Z"/><rect class="cls-2" x="0.02" y="48.85" width="329" height="97.12"/><rect class="cls-3" x="209.29" y="74.62" width="9.13" height="3.38"/><rect class="cls-4" x="210.92" y="72.2" width="5.88" height="2.42"/><rect class="cls-5" x="206.42" y="78" width="15" height="16.43"/><rect class="cls-3" x="225.79" y="74.62" width="9.13" height="3.38"/><rect class="cls-4" x="227.42" y="72.2" width="5.88" height="2.42"/><rect class="cls-6" x="222.92" y="78" width="15" height="16.43"/><rect class="cls-3" x="175.63" y="75.91" width="9.13" height="3.38"/><rect class="cls-4" x="177.25" y="73.49" width="5.88" height="2.42"/><rect class="cls-7" x="172.75" y="79.29" width="15" height="16.43"/><rect class="cls-3" x="192.29" y="75.91" width="9.13" height="3.38"/><rect class="cls-4" x="193.92" y="73.49" width="5.88" height="2.42"/><rect class="cls-8" x="189.42" y="79.29" width="15" height="16.43"/><rect class="cls-3" x="192.33" y="117.94" width="9.13" height="3.38"/><rect class="cls-4" x="193.96" y="121.33" width="5.88" height="2.42"/><rect class="cls-9" x="189.33" y="101.52" width="15" height="16.43"/><rect class="cls-3" x="175.83" y="117.94" width="9.13" height="3.38"/><rect class="cls-4" x="177.46" y="121.33" width="5.88" height="2.42"/><rect class="cls-10" x="172.83" y="101.52" width="15" height="16.43"/><rect class="cls-3" x="226" y="116.66" width="9.13" height="3.38"/><rect class="cls-4" x="227.62" y="120.04" width="5.88" height="2.42"/><rect class="cls-11" x="223" y="100.23" width="15" height="16.43"/><rect class="cls-3" x="209.33" y="116.66" width="9.13" height="3.38"/><rect class="cls-4" x="210.96" y="120.04" width="5.88" height="2.42"/><rect class="cls-12" x="206.33" y="100.23" width="15" height="16.43"/><rect class="cls-13" x="168.63" y="68.57" width="73" height="57.38"/><rect class="cls-3" x="285.46" y="74.62" width="9.13" height="3.38"/><rect class="cls-4" x="287.08" y="72.2" width="5.88" height="2.42"/><rect class="cls-14" x="282.58" y="78" width="15" height="16.43"/><rect class="cls-3" x="301.96" y="74.62" width="9.13" height="3.38"/><rect class="cls-4" x="303.58" y="72.2" width="5.88" height="2.42"/><rect class="cls-15" x="299.08" y="78" width="15" height="16.43"/><rect class="cls-3" x="251.79" y="75.91" width="9.13" height="3.38"/><rect class="cls-4" x="253.42" y="73.49" width="5.88" height="2.42"/><rect class="cls-16" x="248.92" y="79.29" width="15" height="16.43"/><rect class="cls-3" x="268.46" y="75.91" width="9.13" height="3.38"/><rect class="cls-4" x="270.08" y="73.49" width="5.88" height="2.42"/><rect class="cls-17" x="265.58" y="79.29" width="15" height="16.43"/><rect class="cls-3" x="268.5" y="117.94" width="9.13" height="3.38"/><rect class="cls-4" x="270.12" y="121.33" width="5.88" height="2.42"/><rect class="cls-18" x="265.5" y="101.52" width="15" height="16.43"/><rect class="cls-3" x="252" y="117.94" width="9.13" height="3.38"/><rect class="cls-4" x="253.62" y="121.33" width="5.88" height="2.42"/><rect class="cls-19" x="249" y="101.52" width="15" height="16.43"/><rect class="cls-3" x="302.17" y="116.66" width="9.13" height="3.38"/><rect class="cls-4" x="303.79" y="120.04" width="5.88" height="2.42"/><rect class="cls-20" x="299.17" y="100.23" width="15" height="16.43"/><rect class="cls-3" x="285.5" y="116.66" width="9.13" height="3.38"/><rect class="cls-4" x="287.12" y="120.04" width="5.88" height="2.42"/><rect class="cls-21" x="282.5" y="100.23" width="15" height="16.43"/><rect class="cls-13" x="244.79" y="68.57" width="73" height="57.38"/><rect class="cls-3" x="133.17" y="74.62" width="9.13" height="3.38"/><rect class="cls-4" x="134.79" y="72.2" width="5.88" height="2.42"/><rect class="cls-22" x="130.29" y="78" width="15" height="16.43"/><rect class="cls-3" x="149.67" y="74.62" width="9.13" height="3.38"/><rect class="cls-4" x="151.29" y="72.2" width="5.88" height="2.42"/><rect class="cls-23" x="146.79" y="78" width="15" height="16.43"/><rect class="cls-3" x="99.5" y="75.91" width="9.13" height="3.38"/><rect class="cls-4" x="101.13" y="73.49" width="5.88" height="2.42"/><rect class="cls-24" x="96.63" y="79.29" width="15" height="16.43"/><rect class="cls-3" x="116.17" y="75.91" width="9.13" height="3.38"/><rect class="cls-4" x="117.79" y="73.49" width="5.88" height="2.42"/><rect class="cls-25" x="113.29" y="79.29" width="15" height="16.43"/><rect class="cls-3" x="116.21" y="117.94" width="9.13" height="3.38"/><rect class="cls-4" x="117.83" y="121.33" width="5.88" height="2.42"/><rect class="cls-26" x="113.21" y="101.52" width="15" height="16.43"/><rect class="cls-3" x="99.71" y="117.94" width="9.13" height="3.38"/><rect class="cls-4" x="101.33" y="121.33" width="5.88" height="2.42"/><rect class="cls-27" x="96.71" y="101.52" width="15" height="16.43"/><rect class="cls-3" x="149.87" y="116.66" width="9.13" height="3.38"/><rect class="cls-4" x="151.5" y="120.04" width="5.88" height="2.42"/><rect class="cls-28" x="146.88" y="100.23" width="15" height="16.43"/><rect class="cls-3" x="133.21" y="116.66" width="9.13" height="3.38"/><rect class="cls-4" x="134.83" y="120.04" width="5.88" height="2.42"/><rect class="cls-29" x="130.21" y="100.23" width="15" height="16.43"/><rect class="cls-13" x="92.5" y="68.57" width="73" height="57.38"/></g></svg>