<svg height="512" viewBox="0 0 64 64" width="512" xmlns="http://www.w3.org/2000/svg"><g id="Filled_outline" data-name="Filled outline"><path d="m3 42h58v16h-58z" fill="#c6c6ba"/><path d="m23 46h34v4h-34z" fill="#f4f4e6"/><g fill="#5a6470"><path d="m6 45h2v10h-2z"/><path d="m10 45h2v10h-2z"/><path d="m14 45h2v10h-2z"/><path d="m18 45h2v10h-2z"/></g><path d="m56 53h2v2h-2z" fill="#e1462b"/><path d="m52 53h2v2h-2z" fill="#fcf05a"/><path d="m10 6h44v36h-44z" fill="#dbdbd1"/><path d="m50 37a140.653 140.653 0 0 1 -18 1 140.653 140.653 0 0 1 -18-1v-26a140.653 140.653 0 0 1 18-1 140.653 140.653 0 0 1 18 1z" fill="#87cee9"/><path d="m19 22h-2v-7a1 1 0 0 1 .684-.949 32.154 32.154 0 0 1 9.316-1.051v2a35.794 35.794 0 0 0 -8 .768z" fill="#f4f4e6"/><path d="m35 35v-2a67.921 67.921 0 0 0 10-.83v-5.17h2v6a1 1 0 0 1 -.8.98 66.356 66.356 0 0 1 -11.2 1.02z" fill="#f4f4e6"/><path d="m17 24h2v2h-2z" fill="#f4f4e6"/><path d="m61 41h-6v-35a1 1 0 0 0 -1-1h-44a1 1 0 0 0 -1 1v35h-6a1 1 0 0 0 -1 1v16a1 1 0 0 0 1 1h58a1 1 0 0 0 1-1v-16a1 1 0 0 0 -1-1zm-50-34h42v34h-42zm49 50h-56v-14h56z"/><path d="m22 46v4a1 1 0 0 0 1 1h34a1 1 0 0 0 1-1v-4a1 1 0 0 0 -1-1h-34a1 1 0 0 0 -1 1zm2 1h32v2h-32z"/><path d="m6 45h2v10h-2z"/><path d="m10 45h2v10h-2z"/><path d="m14 45h2v10h-2z"/><path d="m18 45h2v10h-2z"/><path d="m56 53h2v2h-2z"/><path d="m52 53h2v2h-2z"/><path d="m50.142 10.01a143.336 143.336 0 0 0 -18.142-1.01 143.336 143.336 0 0 0 -18.142 1.01 1 1 0 0 0 -.858.99v26a1 1 0 0 0 .858.99 143.336 143.336 0 0 0 18.142 1.01 143.336 143.336 0 0 0 18.142-1.01 1 1 0 0 0 .858-.99v-26a1 1 0 0 0 -.858-.99zm-1.142 26.108a150.741 150.741 0 0 1 -17 .882 150.741 150.741 0 0 1 -17-.882v-24.236a150.741 150.741 0 0 1 17-.882 150.741 150.741 0 0 1 17 .882z"/><path d="m17 15v7h2v-6.232a35.794 35.794 0 0 1 8-.768v-2a32.154 32.154 0 0 0 -9.316 1.051 1 1 0 0 0 -.684.949z"/><path d="m47 33v-6h-2v5.17a67.921 67.921 0 0 1 -10 .83v2a66.356 66.356 0 0 0 11.2-1.02 1 1 0 0 0 .8-.98z"/><path d="m17 24h2v2h-2z"/></g></svg>