<svg id="Layer_10" data-name="Layer 10" xmlns="http://www.w3.org/2000/svg" xmlns:xlink="http://www.w3.org/1999/xlink" viewBox="0 0 362 301"><defs><style>.cls-1{fill:url(#linear-gradient);}.cls-2{fill:url(#linear-gradient-2);}.cls-3{fill:url(#linear-gradient-3);}.cls-4{fill:url(#radial-gradient);}.cls-5{fill:url(#linear-gradient-4);}.cls-6{fill:url(#linear-gradient-5);}.cls-7{fill:url(#linear-gradient-6);}.cls-8{fill:url(#linear-gradient-7);}.cls-9{fill:url(#linear-gradient-8);}.cls-10{fill:url(#linear-gradient-9);}.cls-11{fill:url(#linear-gradient-10);}.cls-12{fill:url(#radial-gradient-2);}</style><linearGradient id="linear-gradient" x1="187.92" y1="23.5" x2="187.92" y2="42.67" gradientUnits="userSpaceOnUse"><stop offset="0" stop-color="#545454"/><stop offset="0" stop-color="#585858"/><stop offset="0" stop-color="#636363"/><stop offset="0" stop-color="#767675"/><stop offset="0" stop-color="#91918e"/><stop offset="0" stop-color="#9e9e9b"/><stop offset="0.17" stop-color="#999996"/><stop offset="0.37" stop-color="#8a8a88"/><stop offset="0.6" stop-color="#727270"/><stop offset="0.83" stop-color="#50504f"/><stop offset="1" stop-color="#333"/></linearGradient><linearGradient id="linear-gradient-2" x1="187.75" y1="185.5" x2="187.75" y2="204.67" xlink:href="#linear-gradient"/><linearGradient id="linear-gradient-3" x1="187.33" y1="37.67" x2="187.33" y2="203" gradientUnits="userSpaceOnUse"><stop offset="0" stop-color="#545454"/><stop offset="0" stop-color="#505050"/><stop offset="0" stop-color="#454545"/><stop offset="0" stop-color="#323232"/><stop offset="0" stop-color="#232323"/><stop offset="0" stop-color="#272727"/><stop offset="0" stop-color="#333"/><stop offset="0" stop-color="#474747"/><stop offset="0" stop-color="#626262"/><stop offset="0" stop-color="#868686"/><stop offset="0" stop-color="#b0b0b0"/><stop offset="0.19" stop-color="#acacac"/><stop offset="0.39" stop-color="#9e9e9e"/><stop offset="0.61" stop-color="#898989"/><stop offset="0.83" stop-color="#6a6a6a"/><stop offset="1" stop-color="#4d4d4d"/></linearGradient><radialGradient id="radial-gradient" cx="187.33" cy="120.33" r="76.46" gradientUnits="userSpaceOnUse"><stop offset="0" stop-color="#545454"/><stop offset="0" stop-color="#525758"/><stop offset="0" stop-color="#4d5f63"/><stop offset="0" stop-color="#436d76"/><stop offset="0" stop-color="#368091"/><stop offset="0" stop-color="#2699b3"/><stop offset="0" stop-color="#1ba9c9"/><stop offset="0.29" stop-color="#1fa9c8"/><stop offset="0.58" stop-color="#2ba8c5"/><stop offset="0.87" stop-color="#3ea7c0"/><stop offset="1" stop-color="#4aa6bd"/></radialGradient><linearGradient id="linear-gradient-4" x1="187" y1="202.67" x2="187" y2="289.33" xlink:href="#linear-gradient-3"/><linearGradient id="linear-gradient-5" x1="224.5" y1="221" x2="224.5" y2="249.67" gradientUnits="userSpaceOnUse"><stop offset="0" stop-color="#545454"/><stop offset="0" stop-color="#585858"/><stop offset="0" stop-color="#636363"/><stop offset="0" stop-color="#767675"/><stop offset="0" stop-color="#91918e"/><stop offset="0" stop-color="#b0b0ac"/><stop offset="0" stop-color="#acaca8"/><stop offset="0" stop-color="#a0a09d"/><stop offset="0" stop-color="#8c8c89"/><stop offset="0" stop-color="#71716e"/><stop offset="0" stop-color="#4d4d4b"/><stop offset="0" stop-color="#232322"/><stop offset="0.46" stop-color="#272726"/><stop offset="0.92" stop-color="#333332"/><stop offset="1" stop-color="#353535"/></linearGradient><linearGradient id="linear-gradient-6" x1="73" y1="221" x2="73" y2="267.5" xlink:href="#linear-gradient-5"/><linearGradient id="linear-gradient-7" x1="91.5" y1="221" x2="91.5" y2="267.5" xlink:href="#linear-gradient-5"/><linearGradient id="linear-gradient-8" x1="110" y1="221" x2="110" y2="267.5" xlink:href="#linear-gradient-5"/><linearGradient id="linear-gradient-9" x1="129" y1="221" x2="129" y2="267.5" xlink:href="#linear-gradient-5"/><linearGradient id="linear-gradient-10" x1="303.05" y1="259.42" x2="303.05" y2="267.92" xlink:href="#linear-gradient-5"/><radialGradient id="radial-gradient-2" cx="290.3" cy="257.5" r="4.95" gradientTransform="translate(547.9 -26.64) rotate(90)" gradientUnits="userSpaceOnUse"><stop offset="0" stop-color="#80c41c"/><stop offset="0.26" stop-color="#7cc21d"/><stop offset="0.5" stop-color="#71bd1f"/><stop offset="0.74" stop-color="#5eb423"/><stop offset="0.98" stop-color="#43a728"/><stop offset="1" stop-color="#40a629"/></radialGradient></defs><title>Lely Internet</title><g id="Layer_22" data-name="Layer 22"><path class="cls-1" d="M85.49,41.22l12.3-15a7.37,7.37,0,0,1,5.7-2.7H271.17a7.37,7.37,0,0,1,5.7,2.7l13.48,16.47"/><path class="cls-2" d="M51,203.22l16.42-15A11.38,11.38,0,0,1,75,185.5H298.89a11.38,11.38,0,0,1,7.62,2.7l18,16.47"/></g><path class="cls-3" d="M93.75,37.67H280.91a11.42,11.42,0,0,1,11.42,11.42V203h-210V49.09A11.42,11.42,0,0,1,93.75,37.67Z"/><path class="cls-4" d="M112.6,56.58H262.08a12.59,12.59,0,0,1,12.59,12.59V171.5a12.59,12.59,0,0,1-12.59,12.59H112.59A12.59,12.59,0,0,1,100,171.5V69.18A12.6,12.6,0,0,1,112.6,56.58Z"/><path class="cls-5" d="M52.87,202.67H321.13a4.54,4.54,0,0,1,4.54,4.54v77.6a4.54,4.54,0,0,1-4.54,4.54H52.87a4.54,4.54,0,0,1-4.54-4.54V207.2A4.53,4.53,0,0,1,52.87,202.67Z"/><path class="cls-6" d="M142.5,226v18.7a5,5,0,0,0,5,5h154a5,5,0,0,0,5-5V226a5,5,0,0,0-5-5h-154A5,5,0,0,0,142.5,226Z"/><path class="cls-7" d="M70.12,221h5.78a2.61,2.61,0,0,1,2.61,2.61v41.28a2.61,2.61,0,0,1-2.61,2.61H70.11a2.61,2.61,0,0,1-2.61-2.61V223.62A2.62,2.62,0,0,1,70.12,221Z"/><path class="cls-8" d="M88.62,221h5.78A2.61,2.61,0,0,1,97,223.61v41.28a2.61,2.61,0,0,1-2.61,2.61H88.61A2.61,2.61,0,0,1,86,264.89V223.62A2.62,2.62,0,0,1,88.62,221Z"/><path class="cls-9" d="M107.12,221h5.78a2.61,2.61,0,0,1,2.61,2.61v41.28a2.61,2.61,0,0,1-2.61,2.61h-5.78a2.61,2.61,0,0,1-2.61-2.61V223.62A2.62,2.62,0,0,1,107.12,221Z"/><path class="cls-10" d="M126.12,221h5.78a2.61,2.61,0,0,1,2.61,2.61v41.28a2.61,2.61,0,0,1-2.61,2.61h-5.78a2.61,2.61,0,0,1-2.61-2.61V223.62A2.62,2.62,0,0,1,126.12,221Z"/><path class="cls-11" d="M300.59,259.42h4.93c1.23,0,2.23.21,2.23,0.48v7.55c0,0.26-1,.48-2.23.48h-4.94c-1.23,0-2.23-.21-2.23-0.48v-7.55C298.36,259.63,299.36,259.42,300.59,259.42Z"/><circle class="cls-12" cx="290.4" cy="263.67" r="4.95" transform="translate(-76.3 402.9) rotate(-63.03)"/></svg>