<svg id="Layer_9" data-name="Layer 9" xmlns="http://www.w3.org/2000/svg" xmlns:xlink="http://www.w3.org/1999/xlink" viewBox="0 0 362 301"><defs><style>.cls-1{fill:#3f3c3c;}.cls-2{fill:url(#linear-gradient);}.cls-3{fill:url(#linear-gradient-2);}.cls-4{fill:url(#linear-gradient-3);}.cls-5{fill:url(#linear-gradient-4);}.cls-6{fill:url(#radial-gradient);}.cls-7{fill:url(#linear-gradient-5);}.cls-8{fill:url(#linear-gradient-6);}.cls-9{fill:url(#radial-gradient-2);}.cls-10{fill:url(#radial-gradient-3);}.cls-11{fill:url(#linear-gradient-7);}</style><linearGradient id="linear-gradient" x1="267.6" y1="117.63" x2="282.9" y2="117.63" gradientUnits="userSpaceOnUse"><stop offset="0" stop-color="#545454"/><stop offset="0" stop-color="#505050"/><stop offset="0" stop-color="#454545"/><stop offset="0" stop-color="#323232"/><stop offset="0" stop-color="#232323"/><stop offset="0.22" stop-color="#272727"/><stop offset="0.43" stop-color="#333"/><stop offset="0.65" stop-color="#474747"/><stop offset="0.86" stop-color="#626262"/><stop offset="1" stop-color="#787878"/></linearGradient><linearGradient id="linear-gradient-2" x1="271.83" y1="43.75" x2="278.67" y2="43.75" gradientUnits="userSpaceOnUse"><stop offset="0" stop-color="#545454"/><stop offset="0" stop-color="#505050"/><stop offset="0" stop-color="#454545"/><stop offset="0" stop-color="#323232"/><stop offset="0" stop-color="#232323"/><stop offset="0.22" stop-color="#272727"/><stop offset="0.43" stop-color="#333"/><stop offset="0.65" stop-color="#474747"/><stop offset="0.86" stop-color="#626262"/><stop offset="1" stop-color="#787878"/></linearGradient><linearGradient id="linear-gradient-3" x1="77.6" y1="117.63" x2="92.9" y2="117.63" xlink:href="#linear-gradient"/><linearGradient id="linear-gradient-4" x1="81.83" x2="88.67" xlink:href="#linear-gradient-2"/><radialGradient id="radial-gradient" cx="181.5" cy="188.5" r="118.57" gradientTransform="translate(-380.73 722.68) rotate(-120) scale(1 4)" gradientUnits="userSpaceOnUse"><stop offset="0.17" stop-color="#999"/><stop offset="0.23" stop-color="#939393"/><stop offset="1" stop-color="#4d4d4d"/></radialGradient><linearGradient id="linear-gradient-5" x1="181.5" y1="221" x2="181.5" y2="293.67" gradientUnits="userSpaceOnUse"><stop offset="0" stop-color="#b0b0b0"/><stop offset="0.24" stop-color="#acacac"/><stop offset="0.47" stop-color="#a1a1a1"/><stop offset="0.69" stop-color="#8e8e8e"/><stop offset="0.91" stop-color="#737373"/><stop offset="1" stop-color="#666"/></linearGradient><linearGradient id="linear-gradient-6" x1="179.33" y1="249.67" x2="179.33" y2="293.33" gradientUnits="userSpaceOnUse"><stop offset="0" stop-color="#333"/><stop offset="0.4" stop-color="#2f2f2f"/><stop offset="0.79" stop-color="#242424"/><stop offset="1" stop-color="#1a1a1a"/></linearGradient><radialGradient id="radial-gradient-2" cx="234.5" cy="271.5" r="7.83" gradientUnits="userSpaceOnUse"><stop offset="0" stop-color="#80c41c"/><stop offset="0.26" stop-color="#7cc21d"/><stop offset="0.5" stop-color="#71bd1f"/><stop offset="0.74" stop-color="#5eb423"/><stop offset="0.98" stop-color="#43a728"/><stop offset="1" stop-color="#40a629"/></radialGradient><radialGradient id="radial-gradient-3" cx="265.67" cy="271.5" r="7.83" xlink:href="#radial-gradient-2"/><linearGradient id="linear-gradient-7" x1="177.5" y1="192.33" x2="177.5" y2="174" gradientUnits="userSpaceOnUse"><stop offset="0" stop-color="#545454"/><stop offset="0" stop-color="#505050"/><stop offset="0" stop-color="#454545"/><stop offset="0" stop-color="#323232"/><stop offset="0" stop-color="#232323"/><stop offset="0.47" stop-color="#272727"/><stop offset="0.94" stop-color="#333"/><stop offset="1" stop-color="#353535"/></linearGradient></defs><title>Internet thing</title><path class="cls-1" d="M77.6,155.59l2.81-76.12A2.57,2.57,0,0,1,83,77h4.55a2.57,2.57,0,0,1,2.56,2.47l2.81,76.12a2.57,2.57,0,0,1-2.56,2.66H80.16A2.57,2.57,0,0,1,77.6,155.59Z"/><path class="cls-1" d="M83.65,9.5h1.9a1.82,1.82,0,0,1,1.82,1.78l1.3,64.86A1.82,1.82,0,0,1,86.85,78h-3.2a1.82,1.82,0,0,1-1.82-1.82V11.32A1.82,1.82,0,0,1,83.65,9.5Z"/><path class="cls-2" d="M267.6,155.59l2.81-76.12A2.57,2.57,0,0,1,273,77h4.55a2.57,2.57,0,0,1,2.56,2.47l2.81,76.12a2.57,2.57,0,0,1-2.56,2.66H270.16A2.57,2.57,0,0,1,267.6,155.59Z"/><path class="cls-3" d="M273.65,9.5h1.9a1.82,1.82,0,0,1,1.82,1.78l1.3,64.86A1.82,1.82,0,0,1,276.85,78h-3.2a1.82,1.82,0,0,1-1.82-1.82V11.32A1.82,1.82,0,0,1,273.65,9.5Z"/><path class="cls-4" d="M77.6,155.59l2.81-76.12A2.57,2.57,0,0,1,83,77h4.55a2.57,2.57,0,0,1,2.56,2.47l2.81,76.12a2.57,2.57,0,0,1-2.56,2.66H80.16A2.57,2.57,0,0,1,77.6,155.59Z"/><path class="cls-5" d="M83.65,9.5h1.9a1.82,1.82,0,0,1,1.82,1.78l1.3,64.86A1.82,1.82,0,0,1,86.85,78h-3.2a1.82,1.82,0,0,1-1.82-1.82V11.32A1.82,1.82,0,0,1,83.65,9.5Z"/><path class="cls-6" d="M47.18,166.5L17,221H346l-35.94-55.62A20.51,20.51,0,0,0,292.83,156H65A20.37,20.37,0,0,0,47.18,166.5Z"/><path class="cls-7" d="M17,221H346v57.67a14.93,14.93,0,0,1-14.87,15H33.39a14.31,14.31,0,0,1-14.25-13.85Z"/><path class="cls-8" d="M66,293.33V263.77a14.11,14.11,0,0,1,14.11-14.11H278.69a14,14,0,0,1,14,14v29.69H66Z"/><g id="Layer_8" data-name="Layer 8"><circle class="cls-9" cx="234.5" cy="271.5" r="7.83"/><circle class="cls-10" cx="265.67" cy="271.5" r="7.83"/></g><path class="cls-11" d="M122.25,186.13l1.45-4A12.39,12.39,0,0,1,135.35,174H220a12.39,12.39,0,0,1,11.92,9l1,3.43a4.62,4.62,0,0,1-4.45,5.87H126.6A4.62,4.62,0,0,1,122.25,186.13Z"/></svg>