<svg id="Layer_4" data-name="Layer 4" xmlns="http://www.w3.org/2000/svg" xmlns:xlink="http://www.w3.org/1999/xlink" viewBox="0 0 362 301"><defs><style>.cls-1{fill:url(#radial-gradient);}.cls-2{fill:url(#linear-gradient);}.cls-3{fill:#3f3c3c;}.cls-4{fill:#8c8989;}.cls-5{fill:url(#radial-gradient-2);}.cls-6{fill:url(#radial-gradient-3);}.cls-7{fill:url(#radial-gradient-4);}.cls-8{fill:url(#radial-gradient-5);}.cls-9{fill:url(#radial-gradient-6);}.cls-10{fill:url(#radial-gradient-7);}.cls-11{fill:url(#radial-gradient-8);}.cls-12{fill:url(#radial-gradient-9);}.cls-13{fill:none;stroke:#8c8989;stroke-miterlimit:10;}.cls-14{fill:url(#radial-gradient-10);}.cls-15{fill:url(#radial-gradient-11);}.cls-16{fill:url(#radial-gradient-12);}.cls-17{fill:url(#radial-gradient-13);}.cls-18{fill:url(#radial-gradient-14);}.cls-19{fill:url(#radial-gradient-15);}.cls-20{fill:url(#radial-gradient-16);}.cls-21{fill:url(#radial-gradient-17);}.cls-22{fill:url(#radial-gradient-18);}.cls-23{fill:url(#radial-gradient-19);}.cls-24{fill:url(#radial-gradient-20);}.cls-25{fill:url(#radial-gradient-21);}.cls-26{fill:url(#radial-gradient-22);}.cls-27{fill:url(#radial-gradient-23);}.cls-28{fill:url(#radial-gradient-24);}.cls-29{fill:url(#radial-gradient-25);}.cls-30{fill:url(#radial-gradient-26);}.cls-31{fill:url(#radial-gradient-27);}.cls-32{fill:url(#radial-gradient-28);}.cls-33{fill:url(#radial-gradient-29);}.cls-34{fill:url(#radial-gradient-30);}.cls-35{fill:url(#radial-gradient-31);}.cls-36{fill:url(#radial-gradient-32);}.cls-37{fill:url(#radial-gradient-33);}.cls-38{fill:url(#radial-gradient-34);}.cls-39{fill:url(#radial-gradient-35);}.cls-40{fill:url(#radial-gradient-36);}.cls-41{fill:url(#radial-gradient-37);}</style><radialGradient id="radial-gradient" cx="181" cy="147.75" r="118.57" gradientTransform="translate(-240.32 600) rotate(-120) scale(1 4)" gradientUnits="userSpaceOnUse"><stop offset="0" stop-color="#999"/><stop offset="0" stop-color="#232323"/><stop offset="1" stop-color="#353535"/></radialGradient><linearGradient id="linear-gradient" x1="181" y1="180.25" x2="181" y2="230.5" gradientUnits="userSpaceOnUse"><stop offset="0" stop-color="#b0b0b0"/><stop offset="0.24" stop-color="#acacac"/><stop offset="0.47" stop-color="#a1a1a1"/><stop offset="0.69" stop-color="#8e8e8e"/><stop offset="0.91" stop-color="#737373"/><stop offset="1" stop-color="#666"/></linearGradient><radialGradient id="radial-gradient-2" cx="230.4" cy="199.58" r="6.1" gradientUnits="userSpaceOnUse"><stop offset="0" stop-color="#181818"/><stop offset="0.7" stop-color="#1c1c1c"/><stop offset="1" stop-color="#202020"/></radialGradient><radialGradient id="radial-gradient-3" cx="246.9" cy="199.58" r="6.1" xlink:href="#radial-gradient-2"/><radialGradient id="radial-gradient-4" cx="196.73" cy="200.25" r="6.1" xlink:href="#radial-gradient-2"/><radialGradient id="radial-gradient-5" cx="213.4" cy="200.25" r="6.1" xlink:href="#radial-gradient-2"/><radialGradient id="radial-gradient-6" cx="61.23" cy="223.92" r="6.1" gradientTransform="translate(274.54 435.67) rotate(180)" xlink:href="#radial-gradient-2"/><radialGradient id="radial-gradient-7" cx="77.73" cy="223.92" r="6.1" gradientTransform="translate(274.54 435.67) rotate(180)" xlink:href="#radial-gradient-2"/><radialGradient id="radial-gradient-8" cx="27.56" cy="224.58" r="6.1" gradientTransform="translate(274.54 435.67) rotate(180)" xlink:href="#radial-gradient-2"/><radialGradient id="radial-gradient-9" cx="44.23" cy="224.58" r="6.1" gradientTransform="translate(274.54 435.67) rotate(180)" xlink:href="#radial-gradient-2"/><radialGradient id="radial-gradient-10" cx="306.56" cy="199.58" r="6.1" xlink:href="#radial-gradient-2"/><radialGradient id="radial-gradient-11" cx="323.06" cy="199.58" r="6.1" xlink:href="#radial-gradient-2"/><radialGradient id="radial-gradient-12" cx="272.9" cy="200.25" r="6.1" xlink:href="#radial-gradient-2"/><radialGradient id="radial-gradient-13" cx="289.56" cy="200.25" r="6.1" xlink:href="#radial-gradient-2"/><radialGradient id="radial-gradient-14" cx="-14.94" cy="223.92" r="6.1" gradientTransform="translate(274.54 435.67) rotate(180)" xlink:href="#radial-gradient-2"/><radialGradient id="radial-gradient-15" cx="1.56" cy="223.92" r="6.1" gradientTransform="translate(274.54 435.67) rotate(180)" xlink:href="#radial-gradient-2"/><radialGradient id="radial-gradient-16" cx="-48.6" cy="224.58" r="6.1" gradientTransform="translate(274.54 435.67) rotate(180)" xlink:href="#radial-gradient-2"/><radialGradient id="radial-gradient-17" cx="-31.94" cy="224.58" r="6.1" gradientTransform="translate(274.54 435.67) rotate(180)" xlink:href="#radial-gradient-2"/><radialGradient id="radial-gradient-18" cx="154.27" cy="199.58" r="6.1" xlink:href="#radial-gradient-2"/><radialGradient id="radial-gradient-19" cx="170.77" cy="199.58" r="6.1" xlink:href="#radial-gradient-2"/><radialGradient id="radial-gradient-20" cx="120.6" cy="200.25" r="6.1" xlink:href="#radial-gradient-2"/><radialGradient id="radial-gradient-21" cx="137.27" cy="200.25" r="6.1" xlink:href="#radial-gradient-2"/><radialGradient id="radial-gradient-22" cx="137.35" cy="223.92" r="6.1" gradientTransform="translate(274.54 435.67) rotate(180)" xlink:href="#radial-gradient-2"/><radialGradient id="radial-gradient-23" cx="153.85" cy="223.92" r="6.1" gradientTransform="translate(274.54 435.67) rotate(180)" xlink:href="#radial-gradient-2"/><radialGradient id="radial-gradient-24" cx="103.69" cy="224.58" r="6.1" gradientTransform="translate(274.54 435.67) rotate(180)" xlink:href="#radial-gradient-2"/><radialGradient id="radial-gradient-25" cx="120.35" cy="224.58" r="6.1" gradientTransform="translate(274.54 435.67) rotate(180)" xlink:href="#radial-gradient-2"/><radialGradient id="radial-gradient-26" cx="88.89" cy="61.86" r="2.65" gradientTransform="translate(209.64 287.28) rotate(180)" gradientUnits="userSpaceOnUse"><stop offset="0" stop-color="#78c01d"/><stop offset="0.28" stop-color="#74bc1d"/><stop offset="0.54" stop-color="#69b11e"/><stop offset="0.79" stop-color="#569e20"/><stop offset="1" stop-color="#408822"/></radialGradient><radialGradient id="radial-gradient-27" cx="77.27" cy="50.24" r="2.65" gradientTransform="translate(214.45 275.66) rotate(180)" xlink:href="#radial-gradient-26"/><radialGradient id="radial-gradient-28" cx="65.19" cy="38.16" r="2.65" gradientTransform="translate(219.46 263.58) rotate(180)" xlink:href="#radial-gradient-26"/><radialGradient id="radial-gradient-29" cx="53.46" cy="26.43" r="2.65" gradientTransform="translate(224.32 251.85) rotate(180)" xlink:href="#radial-gradient-26"/><radialGradient id="radial-gradient-30" cx="34.79" cy="8.53" r="2.65" gradientTransform="translate(231.51 233.4) rotate(180)" xlink:href="#radial-gradient-26"/><radialGradient id="radial-gradient-31" cx="23.17" cy="-3.1" r="2.65" gradientTransform="translate(236.32 221.78) rotate(180)" xlink:href="#radial-gradient-26"/><radialGradient id="radial-gradient-32" cx="11.09" cy="-15.18" r="2.65" gradientTransform="translate(241.33 209.7) rotate(180)" xlink:href="#radial-gradient-26"/><radialGradient id="radial-gradient-33" cx="-0.64" cy="-26.9" r="2.65" gradientTransform="translate(246.18 197.97) rotate(180)" xlink:href="#radial-gradient-26"/><radialGradient id="radial-gradient-34" cx="-18.95" cy="-45.21" r="2.65" gradientTransform="translate(253.77 179.66) rotate(180)" xlink:href="#radial-gradient-26"/><radialGradient id="radial-gradient-35" cx="-30.57" cy="-56.84" r="2.65" gradientTransform="translate(258.58 168.04) rotate(180)" xlink:href="#radial-gradient-26"/><radialGradient id="radial-gradient-36" cx="-42.65" cy="-68.92" r="2.65" gradientTransform="translate(263.59 155.96) rotate(180)" xlink:href="#radial-gradient-26"/><radialGradient id="radial-gradient-37" cx="-54.38" cy="-80.64" r="2.65" gradientTransform="translate(268.44 144.23) rotate(180)" xlink:href="#radial-gradient-26"/></defs><title>Lely Internet</title><polygon class="cls-1" points="52.5 115.25 16.5 180.25 345.5 180.25 303.5 115.25 52.5 115.25"/><rect class="cls-2" x="16.5" y="180.25" width="329" height="50.25"/><rect class="cls-3" x="225.77" y="193.58" width="9.13" height="1.75"/><rect class="cls-4" x="227.4" y="192.33" width="5.88" height="1.25"/><rect class="cls-5" x="222.9" y="195.33" width="15" height="8.5"/><rect class="cls-3" x="242.27" y="193.58" width="9.13" height="1.75"/><rect class="cls-4" x="243.9" y="192.33" width="5.88" height="1.25"/><rect class="cls-6" x="239.4" y="195.33" width="15" height="8.5"/><rect class="cls-3" x="192.1" y="194.25" width="9.13" height="1.75"/><rect class="cls-4" x="193.73" y="193" width="5.88" height="1.25"/><rect class="cls-7" x="189.23" y="196" width="15" height="8.5"/><rect class="cls-3" x="208.77" y="194.25" width="9.13" height="1.75"/><rect class="cls-4" x="210.4" y="193" width="5.88" height="1.25"/><rect class="cls-8" x="205.9" y="196" width="15" height="8.5"/><rect class="cls-3" x="208.81" y="216" width="9.13" height="1.75"/><rect class="cls-4" x="210.44" y="217.75" width="5.88" height="1.25"/><rect class="cls-9" x="205.81" y="207.5" width="15" height="8.5"/><rect class="cls-3" x="192.31" y="216" width="9.13" height="1.75"/><rect class="cls-4" x="193.94" y="217.75" width="5.88" height="1.25"/><rect class="cls-10" x="189.31" y="207.5" width="15" height="8.5"/><rect class="cls-3" x="242.48" y="215.33" width="9.13" height="1.75"/><rect class="cls-4" x="244.1" y="217.08" width="5.88" height="1.25"/><rect class="cls-11" x="239.48" y="206.83" width="15" height="8.5"/><rect class="cls-3" x="225.81" y="215.33" width="9.13" height="1.75"/><rect class="cls-4" x="227.44" y="217.08" width="5.88" height="1.25"/><rect class="cls-12" x="222.81" y="206.83" width="15" height="8.5"/><rect class="cls-13" x="185.1" y="190.46" width="73" height="29.69"/><rect class="cls-3" x="301.94" y="193.58" width="9.13" height="1.75"/><rect class="cls-4" x="303.56" y="192.33" width="5.88" height="1.25"/><rect class="cls-14" x="299.06" y="195.33" width="15" height="8.5"/><rect class="cls-3" x="318.44" y="193.58" width="9.13" height="1.75"/><rect class="cls-4" x="320.06" y="192.33" width="5.88" height="1.25"/><rect class="cls-15" x="315.56" y="195.33" width="15" height="8.5"/><rect class="cls-3" x="268.27" y="194.25" width="9.13" height="1.75"/><rect class="cls-4" x="269.9" y="193" width="5.88" height="1.25"/><rect class="cls-16" x="265.4" y="196" width="15" height="8.5"/><rect class="cls-3" x="284.94" y="194.25" width="9.13" height="1.75"/><rect class="cls-4" x="286.56" y="193" width="5.88" height="1.25"/><rect class="cls-17" x="282.06" y="196" width="15" height="8.5"/><rect class="cls-3" x="284.98" y="216" width="9.13" height="1.75"/><rect class="cls-4" x="286.6" y="217.75" width="5.88" height="1.25"/><rect class="cls-18" x="281.98" y="207.5" width="15" height="8.5"/><rect class="cls-3" x="268.48" y="216" width="9.13" height="1.75"/><rect class="cls-4" x="270.1" y="217.75" width="5.88" height="1.25"/><rect class="cls-19" x="265.48" y="207.5" width="15" height="8.5"/><rect class="cls-3" x="318.65" y="215.33" width="9.13" height="1.75"/><rect class="cls-4" x="320.27" y="217.08" width="5.88" height="1.25"/><rect class="cls-20" x="315.65" y="206.83" width="15" height="8.5"/><rect class="cls-3" x="301.98" y="215.33" width="9.13" height="1.75"/><rect class="cls-4" x="303.6" y="217.08" width="5.88" height="1.25"/><rect class="cls-21" x="298.98" y="206.83" width="15" height="8.5"/><rect class="cls-13" x="261.27" y="190.46" width="73" height="29.69"/><rect class="cls-3" x="149.65" y="193.58" width="9.13" height="1.75"/><rect class="cls-4" x="151.27" y="192.33" width="5.88" height="1.25"/><rect class="cls-22" x="146.77" y="195.33" width="15" height="8.5"/><rect class="cls-3" x="166.15" y="193.58" width="9.13" height="1.75"/><rect class="cls-4" x="167.77" y="192.33" width="5.88" height="1.25"/><rect class="cls-23" x="163.27" y="195.33" width="15" height="8.5"/><rect class="cls-3" x="115.98" y="194.25" width="9.13" height="1.75"/><rect class="cls-4" x="117.6" y="193" width="5.88" height="1.25"/><rect class="cls-24" x="113.1" y="196" width="15" height="8.5"/><rect class="cls-3" x="132.65" y="194.25" width="9.13" height="1.75"/><rect class="cls-4" x="134.27" y="193" width="5.88" height="1.25"/><rect class="cls-25" x="129.77" y="196" width="15" height="8.5"/><rect class="cls-3" x="132.69" y="216" width="9.13" height="1.75"/><rect class="cls-4" x="134.31" y="217.75" width="5.88" height="1.25"/><rect class="cls-26" x="129.69" y="207.5" width="15" height="8.5"/><rect class="cls-3" x="116.19" y="216" width="9.13" height="1.75"/><rect class="cls-4" x="117.81" y="217.75" width="5.88" height="1.25"/><rect class="cls-27" x="113.19" y="207.5" width="15" height="8.5"/><rect class="cls-3" x="166.35" y="215.33" width="9.13" height="1.75"/><rect class="cls-4" x="167.98" y="217.08" width="5.88" height="1.25"/><rect class="cls-28" x="163.35" y="206.83" width="15" height="8.5"/><rect class="cls-3" x="149.69" y="215.33" width="9.13" height="1.75"/><rect class="cls-4" x="151.31" y="217.08" width="5.88" height="1.25"/><rect class="cls-29" x="146.69" y="206.83" width="15" height="8.5"/><rect class="cls-13" x="108.98" y="190.46" width="73" height="29.69"/><circle class="cls-30" cx="120.75" cy="225.42" r="2.65" transform="translate(-124.03 151.41) rotate(-45)"/><circle class="cls-31" cx="137.19" cy="225.42" r="2.65" transform="translate(-119.21 163.03) rotate(-45)"/><circle class="cls-32" cx="154.27" cy="225.42" r="2.65" transform="translate(-114.21 175.11) rotate(-45)"/><circle class="cls-33" cx="170.85" cy="225.42" r="2.65" transform="translate(-109.35 186.83) rotate(-45)"/><circle class="cls-34" cx="196.72" cy="224.87" r="2.65" transform="translate(-101.39 204.97) rotate(-45)"/><circle class="cls-35" cx="213.16" cy="224.87" r="2.65" transform="translate(-96.58 216.59) rotate(-45)"/><circle class="cls-36" cx="230.24" cy="224.87" r="2.65" transform="translate(-91.58 228.67) rotate(-45)"/><circle class="cls-37" cx="246.82" cy="224.87" r="2.65" transform="translate(-86.72 240.39) rotate(-45)"/><circle class="cls-38" cx="272.72" cy="224.87" r="2.65" transform="translate(-79.13 258.71) rotate(-45)"/><circle class="cls-39" cx="289.16" cy="224.87" r="2.65" transform="translate(-74.32 270.33) rotate(-45)"/><circle class="cls-40" cx="306.24" cy="224.87" r="2.65" transform="translate(-69.32 282.41) rotate(-45)"/><circle class="cls-41" cx="322.82" cy="224.87" r="2.65" transform="translate(-64.46 294.13) rotate(-45)"/></svg>