<svg id="Layer_1" data-name="Layer 1" xmlns="http://www.w3.org/2000/svg" xmlns:xlink="http://www.w3.org/1999/xlink" viewBox="0 0 300.17 271.23"><defs><style>.cls-1{fill:url(#linear-gradient);}</style><linearGradient id="linear-gradient" x1="52.5" y1="135.62" x2="247.67" y2="135.62" gradientUnits="userSpaceOnUse"><stop offset="0" stop-color="#3dbad3"/><stop offset="1" stop-color="#0f73b8"/></linearGradient></defs><path class="cls-1" d="M230.53,167.87a26.06,26.06,0,0,0-20.08.76l-.09,0L170.2,100.12l-1.4-2.38h0a26,26,0,0,0,6.51-9.87,26.25,26.25,0,1,0-45.42,6.87L97.94,119.31a26.24,26.24,0,0,0-43.8,8.79A26.25,26.25,0,1,0,101,123.27l32.32-24.86a26.22,26.22,0,0,0,31.53,2.43L206,171.08l.06.11a26.25,26.25,0,0,0,15.34,47.54,26.25,26.25,0,0,0,9.15-50.86ZM98.68,144.6a21.24,21.24,0,1,1-9.46-25.88c.19.1.37.21.55.32a17,17,0,0,1,1.5,1c.27.2.55.41.81.62l.42.35c.23.19.45.39.67.59s.28.26.41.4.53.53.78.8.53.59.78.9l.07.08.38.49c.11.14.22.27.32.41a19.1,19.1,0,0,1,1.6,2.58c.13.23.25.47.36.71s.23.48.33.72.2.45.29.68a.32.32,0,0,1,0,.09c.1.23.18.47.27.7s.2.59.28.88.13.43.19.65.14.51.19.77a13.52,13.52,0,0,1,.28,1.41c0,.17,0,.34.07.51a3.47,3.47,0,0,1,.06.45A21.16,21.16,0,0,1,98.68,144.6Zm44.63-45.93a21.07,21.07,0,0,1-7.81-5.08,0,0,0,0,1,0,0,19.47,19.47,0,0,1-1.64-1.89,21.24,21.24,0,1,1,9.46,7Zm98,101.19a21.25,21.25,0,0,1-39.86-14.76h0c.13-.35.27-.69.41-1s.27-.61.42-.91.28-.57.43-.84l.07-.12a.47.47,0,0,0,.05-.1l.4-.69c.34-.56.71-1.11,1.1-1.63.15-.2.3-.4.46-.59s.31-.39.48-.58c.33-.38.66-.75,1-1.1a6,6,0,0,1,.51-.5l0,0c.17-.18.34-.33.52-.49L208,176a5.39,5.39,0,0,1,.6-.47,4.29,4.29,0,0,1,.5-.37l.51-.36.53-.34c.17-.12.35-.22.53-.33h0l.15-.09c.56-.32,1.13-.61,1.72-.88a21.25,21.25,0,0,1,28.8,26.69Z"/></svg>